<svg xmlns="http://www.w3.org/2000/svg" width="14" height="14" viewBox="0 0 14 14" fill="none"><path d="M11.3211 6.42547C11.0608 5.83944 10.6824 5.31342 10.2096 4.88031L9.81911 4.52222C9.80588 4.51031 9.78992 4.50184 9.77263 4.49756C9.75535 4.49329 9.73728 4.49333 9.72002 4.49769C9.70276 4.50206 9.68683 4.51061 9.67366 4.52258C9.66049 4.53456 9.65047 4.5496 9.64448 4.56637L9.47035 5.06671C9.36194 5.38064 9.1618 5.70096 8.87877 6.01637C8.86446 6.03182 8.84483 6.04128 8.82383 6.04286C8.81334 6.04389 8.80275 6.04268 8.79277 6.03929C8.78279 6.03591 8.77364 6.03044 8.76595 6.02324C8.75683 6.01523 8.74969 6.00521 8.74509 5.99398C8.74049 5.98274 8.73857 5.97059 8.73946 5.95849C8.78851 5.15108 8.54766 4.24017 8.01887 3.2493C7.58181 2.42521 6.97405 1.78311 6.2152 1.33526L5.66091 1.00906C5.64418 0.999618 5.62524 0.99481 5.60604 0.995132C5.58684 0.995455 5.56807 1.0009 5.55167 1.01089C5.53527 1.02089 5.52184 1.03509 5.51276 1.05201C5.50368 1.06893 5.49928 1.08797 5.50001 1.10717L5.52945 1.75074C5.54956 2.19074 5.49854 2.57973 5.37787 2.90348C5.22971 3.30016 5.01671 3.66948 4.74754 3.99637C4.55722 4.22692 4.34384 4.43491 4.11035 4.61444C3.5448 5.04938 3.08498 5.60663 2.76532 6.24446C2.46683 6.84684 2.30207 7.50663 2.28234 8.17862C2.26262 8.85061 2.38838 9.51893 2.65103 10.1378C3.13378 11.2625 4.03518 12.1553 5.16449 12.6272C5.74594 12.8713 6.37042 12.9964 7.00103 12.9951C7.63131 12.9962 8.25549 12.8716 8.83707 12.6287C9.39771 12.3954 9.90754 12.0552 10.3381 11.627C10.7771 11.1945 11.1256 10.6788 11.3633 10.1102C11.6009 9.54156 11.723 8.93129 11.7224 8.31498C11.7224 7.66062 11.5884 7.02489 11.3211 6.42547Z" fill="url(#paint0_linear_6455_70835)"></path><defs><linearGradient id="paint0_linear_6455_70835" x1="7.00135" y1="0.995117" x2="7.00135" y2="12.9951" gradientUnits="userSpaceOnUse"><stop stop-color="#F45F4F"></stop><stop offset="1" stop-color="#F1493F"></stop></linearGradient></defs></svg>