<svg width="43" height="59" viewBox="0 0 43 59" fill="none" xmlns="http://www.w3.org/2000/svg">
<path fill-rule="evenodd" clip-rule="evenodd" d="M0.505371 21.7911C0.505371 33.3945 9.91179 42.8009 21.5152 42.8009C33.1186 42.8009 42.525 33.3945 42.525 21.7911C42.525 10.1877 33.1186 0.78125 21.5152 0.78125C9.91179 0.78125 0.505371 10.1877 0.505371 21.7911ZM17.6634 31.4207L18.0209 26.0652L18.0206 26.0649L27.7629 17.2732C28.1905 16.8937 27.6696 16.7087 27.102 17.0529L15.0786 24.6383L9.88513 23.0173C8.76358 22.6739 8.75552 21.9032 10.1369 21.3492L30.3746 13.5456C31.299 13.126 32.1911 13.7676 31.8382 15.1823L28.3917 31.4234C28.1511 32.5775 27.4537 32.8535 26.4875 32.3204L21.2375 28.4416L18.7139 30.8954C18.706 30.9032 18.698 30.9109 18.6902 30.9186C18.4079 31.1933 18.1744 31.4207 17.6634 31.4207Z" fill="#9255F5"/>
<path d="M8.80764 54.3113H9.83764C9.67764 55.098 9.2943 55.7413 8.68764 56.2413C8.08764 56.7413 7.35764 56.9913 6.49764 56.9913C5.49097 56.9913 4.66764 56.6547 4.02764 55.9813C3.3943 55.308 3.07764 54.4847 3.07764 53.5113C3.07764 52.5447 3.39764 51.7213 4.03764 51.0413C4.67764 50.3613 5.49764 50.0213 6.49764 50.0213C7.33764 50.0213 8.05764 50.268 8.65764 50.7613C9.2643 51.248 9.65097 51.878 9.81764 52.6513H8.79764C8.65097 52.158 8.37097 51.7547 7.95764 51.4413C7.55097 51.128 7.07097 50.9713 6.51764 50.9713C5.8043 50.9713 5.2143 51.2213 4.74764 51.7213C4.28764 52.2147 4.05764 52.8113 4.05764 53.5113C4.05764 54.218 4.28764 54.818 4.74764 55.3113C5.2143 55.798 5.8043 56.0413 6.51764 56.0413C7.09764 56.0413 7.59097 55.8813 7.99764 55.5613C8.41097 55.2347 8.68097 54.818 8.80764 54.3113ZM13.1632 51.7713C13.7965 51.7713 14.3065 51.978 14.6932 52.3913C15.0799 52.798 15.2732 53.3413 15.2732 54.0213V56.8613H14.3232V54.1913C14.3232 53.7513 14.1999 53.3913 13.9532 53.1113C13.7132 52.8313 13.3832 52.6913 12.9632 52.6913C12.5099 52.6913 12.1399 52.8513 11.8532 53.1713C11.5732 53.4847 11.4332 53.8913 11.4332 54.3913V56.8613H10.4832V49.6613H11.4332V52.5813H11.4732C11.8865 52.0413 12.4499 51.7713 13.1632 51.7713ZM20.1065 52.6313V51.9113H21.0465V56.8613H20.1065V56.0913H20.0665C19.6465 56.6913 19.0531 56.9947 18.2865 57.0013C17.5665 57.0147 16.9665 56.7747 16.4865 56.2813C16.0131 55.788 15.7765 55.1547 15.7765 54.3813C15.7765 53.608 16.0131 52.978 16.4865 52.4913C16.9598 52.0047 17.5631 51.7647 18.2965 51.7713C19.0565 51.778 19.6465 52.0647 20.0665 52.6313H20.1065ZM18.4265 56.0813C18.9198 56.0813 19.3198 55.918 19.6265 55.5913C19.9398 55.2647 20.0965 54.8613 20.0965 54.3813C20.0965 53.9013 19.9398 53.498 19.6265 53.1713C19.3198 52.8447 18.9198 52.6813 18.4265 52.6813C17.9198 52.6813 17.5098 52.8447 17.1965 53.1713C16.8831 53.498 16.7265 53.9013 16.7265 54.3813C16.7265 54.8613 16.8831 55.2647 17.1965 55.5913C17.5098 55.918 17.9198 56.0813 18.4265 56.0813ZM24.6632 51.7713C25.2965 51.7713 25.8065 51.978 26.1932 52.3913C26.5799 52.798 26.7732 53.3413 26.7732 54.0213V56.8613H25.8232V54.1913C25.8232 53.7513 25.6999 53.3913 25.4532 53.1113C25.2132 52.8313 24.8832 52.6913 24.4632 52.6913C24.0099 52.6913 23.6399 52.8513 23.3532 53.1713C23.0732 53.4847 22.9332 53.8913 22.9332 54.3913V56.8613H21.9832V51.9113H22.9132V52.5813H22.9532C23.3799 52.0413 23.9499 51.7713 24.6632 51.7713ZM30.2765 51.7713C30.9098 51.7713 31.4198 51.978 31.8065 52.3913C32.1931 52.798 32.3865 53.3413 32.3865 54.0213V56.8613H31.4365V54.1913C31.4365 53.7513 31.3131 53.3913 31.0665 53.1113C30.8265 52.8313 30.4965 52.6913 30.0765 52.6913C29.6231 52.6913 29.2531 52.8513 28.9665 53.1713C28.6865 53.4847 28.5465 53.8913 28.5465 54.3913V56.8613H27.5965V51.9113H28.5265V52.5813H28.5665C28.9931 52.0413 29.5631 51.7713 30.2765 51.7713ZM35.4497 51.7713C36.2564 51.7713 36.8964 52.0547 37.3697 52.6213C37.8497 53.188 38.0564 53.888 37.9897 54.7213H33.8997C33.9331 55.1147 34.0997 55.4413 34.3997 55.7013C34.6997 55.9613 35.0697 56.0913 35.5097 56.0913C35.8297 56.0913 36.1131 56.0213 36.3597 55.8813C36.6064 55.7413 36.7864 55.5547 36.8997 55.3213H37.8897C37.7231 55.8413 37.4231 56.2513 36.9897 56.5513C36.5564 56.8513 36.0497 57.0013 35.4697 57.0013C34.6964 57.0013 34.0731 56.7513 33.5997 56.2513C33.1264 55.7447 32.8897 55.1247 32.8897 54.3913C32.8897 53.6513 33.1297 53.0313 33.6097 52.5313C34.0897 52.0247 34.7031 51.7713 35.4497 51.7713ZM35.4297 52.6813C35.0431 52.6813 34.7131 52.7947 34.4397 53.0213C34.1664 53.2413 33.9931 53.528 33.9197 53.8813H36.9597C36.8864 53.5213 36.7097 53.2313 36.4297 53.0113C36.1564 52.7913 35.8231 52.6813 35.4297 52.6813ZM38.5094 55.5813V49.6613H39.4594V55.4513C39.4594 55.778 39.626 55.9413 39.9594 55.9413H40.7594V56.8613H39.8194C39.3994 56.8613 39.076 56.7513 38.8494 56.5313C38.6227 56.3047 38.5094 55.988 38.5094 55.5813Z" fill="#8950E7"/>
</svg>
