<svg width="43" height="59" viewBox="0 0 43 59" fill="none" xmlns="http://www.w3.org/2000/svg">
<path fill-rule="evenodd" clip-rule="evenodd" d="M0.554443 21.7911C0.554443 33.3945 9.96086 42.8009 21.5643 42.8009C33.1677 42.8009 42.5741 33.3945 42.5741 21.7911C42.5741 10.1877 33.1677 0.78125 21.5643 0.78125C9.96086 0.78125 0.554443 10.1877 0.554443 21.7911ZM17.7123 31.4207L18.0698 26.0652L18.0695 26.0649L27.8118 17.2732C28.2394 16.8937 27.7185 16.7087 27.1509 17.0529L15.1275 24.6383L9.93402 23.0173C8.81247 22.6739 8.80441 21.9032 10.1858 21.3492L30.4235 13.5456C31.3478 13.126 32.24 13.7676 31.8871 15.1823L28.4406 31.4234C28.2 32.5775 27.5026 32.8535 26.5364 32.3204L21.2864 28.4416L18.7628 30.8954C18.7548 30.9032 18.7469 30.9109 18.7391 30.9186C18.4568 31.1933 18.2233 31.4207 17.7123 31.4207Z" fill="white"/>
<path d="M14.3718 54.3113H15.4018C15.2418 55.098 14.8585 55.7413 14.2518 56.2413C13.6518 56.7413 12.9218 56.9913 12.0618 56.9913C11.0552 56.9913 10.2318 56.6547 9.59185 55.9813C8.95851 55.308 8.64185 54.4847 8.64185 53.5113C8.64185 52.5447 8.96185 51.7213 9.60185 51.0413C10.2418 50.3613 11.0618 50.0213 12.0618 50.0213C12.9018 50.0213 13.6218 50.268 14.2218 50.7613C14.8285 51.248 15.2152 51.878 15.3818 52.6513H14.3618C14.2152 52.158 13.9352 51.7547 13.5218 51.4413C13.1152 51.128 12.6352 50.9713 12.0818 50.9713C11.3685 50.9713 10.7785 51.2213 10.3118 51.7213C9.85185 52.2147 9.62185 52.8113 9.62185 53.5113C9.62185 54.218 9.85185 54.818 10.3118 55.3113C10.7785 55.798 11.3685 56.0413 12.0818 56.0413C12.6618 56.0413 13.1552 55.8813 13.5618 55.5613C13.9752 55.2347 14.2452 54.818 14.3718 54.3113ZM18.8274 51.7713C19.4607 51.7713 19.9707 51.978 20.3574 52.3913C20.7441 52.798 20.9374 53.3413 20.9374 54.0213V56.8613H19.9874V54.1913C19.9874 53.7513 19.8641 53.3913 19.6174 53.1113C19.3774 52.8313 19.0474 52.6913 18.6274 52.6913C18.1741 52.6913 17.8041 52.8513 17.5174 53.1713C17.2374 53.4847 17.0974 53.8913 17.0974 54.3913V56.8613H16.1474V49.6613H17.0974V52.5813H17.1374C17.5507 52.0413 18.1141 51.7713 18.8274 51.7713ZM25.8707 52.6313V51.9113H26.8107V56.8613H25.8707V56.0913H25.8307C25.4107 56.6913 24.8173 56.9947 24.0507 57.0013C23.3307 57.0147 22.7307 56.7747 22.2507 56.2813C21.7773 55.788 21.5407 55.1547 21.5407 54.3813C21.5407 53.608 21.7773 52.978 22.2507 52.4913C22.724 52.0047 23.3273 51.7647 24.0607 51.7713C24.8207 51.778 25.4107 52.0647 25.8307 52.6313H25.8707ZM24.1907 56.0813C24.684 56.0813 25.084 55.918 25.3907 55.5913C25.704 55.2647 25.8607 54.8613 25.8607 54.3813C25.8607 53.9013 25.704 53.498 25.3907 53.1713C25.084 52.8447 24.684 52.6813 24.1907 52.6813C23.684 52.6813 23.274 52.8447 22.9607 53.1713C22.6473 53.498 22.4907 53.9013 22.4907 54.3813C22.4907 54.8613 22.6473 55.2647 22.9607 55.5913C23.274 55.918 23.684 56.0813 24.1907 56.0813ZM31.4674 51.9113V52.8313H29.2174V55.4413C29.2174 55.768 29.3841 55.9313 29.7174 55.9313H31.4674V56.8613H29.5274C29.1207 56.8613 28.8074 56.7547 28.5874 56.5413C28.3741 56.328 28.2674 56.0213 28.2674 55.6213V52.8313H27.3674V51.9113H28.2674V50.1613H29.2174V51.9113H31.4674Z" fill="white"/>
</svg>
