<svg width="43" height="43" viewBox="0 0 43 43" fill="none" xmlns="http://www.w3.org/2000/svg">
<path fill-rule="evenodd" clip-rule="evenodd" d="M21.0098 0C9.40642 0 0 9.40642 0 21.0098C0 32.6132 9.40642 42.0196 21.0098 42.0196C32.6132 42.0196 42.0196 32.6132 42.0196 21.0098C42.0196 9.40642 32.6132 0 21.0098 0ZM22.3316 18.3379L22.2812 17.5074C22.1301 15.355 23.4563 13.389 25.5548 12.6264C26.327 12.3552 27.6364 12.3213 28.4926 12.5586C28.8283 12.6603 29.4663 12.9992 29.9195 13.3043L30.7421 13.8636L31.6486 13.5755C32.1523 13.4229 32.8238 13.1687 33.1259 12.9992C33.4113 12.8467 33.6631 12.762 33.6631 12.8128C33.6631 13.1009 33.042 14.0839 32.5216 14.6262C31.8165 15.3889 32.018 15.4567 33.4449 14.9482C34.3011 14.6601 34.3178 14.6601 34.15 14.9821C34.0492 15.1516 33.5288 15.7448 32.9748 16.2871C32.0347 17.2193 31.9844 17.321 31.9844 18.1006C31.9844 19.3039 31.4136 21.8122 30.8428 23.185C29.7852 25.7611 27.5189 28.4219 25.2526 29.7608C22.063 31.6421 17.8157 32.1166 14.24 31.015C13.0481 30.6421 11 29.693 11 29.5236C11 29.4727 11.6211 29.4049 12.3766 29.388C13.9546 29.3541 15.5326 28.9134 16.8756 28.1338L17.7822 27.5915L16.7413 27.2356C15.264 26.7271 13.9378 25.5577 13.6021 24.4561C13.5013 24.1002 13.5349 24.0832 14.475 24.0832L15.4487 24.0663L14.6261 23.6765C13.6524 23.185 12.7627 22.3545 12.3262 21.5071C12.0072 20.897 11.6044 19.3547 11.7219 19.2361C11.7554 19.1853 12.108 19.2869 12.5109 19.4225C13.6692 19.8462 13.8203 19.7445 13.1488 19.0327C11.8897 17.7447 11.5036 15.8295 12.108 14.0161L12.3934 13.2026L13.5013 14.3042C15.7677 16.5244 18.4369 17.8464 21.4922 18.2362L22.3316 18.3379Z" fill="white"/>
</svg>
