<svg width="43" height="43" viewBox="0 0 43 43" fill="none" xmlns="http://www.w3.org/2000/svg">
<path fill-rule="evenodd" clip-rule="evenodd" d="M21.9903 0.78125C10.3869 0.78125 0.980469 10.1877 0.980469 21.7911C0.980469 33.3945 10.3869 42.8009 21.9903 42.8009C33.5937 42.8009 43.0001 33.3945 43.0001 21.7911C43.0001 10.1877 33.5937 0.78125 21.9903 0.78125ZM23.918 29.0879C23.7005 29.3172 23.2758 29.3635 23.2758 29.3635H21.8694C21.8694 29.3635 18.7665 29.5466 16.0331 26.7538C13.0522 23.7069 10.42 17.6617 10.42 17.6617C10.42 17.6617 10.2681 17.2652 10.4327 17.0742C10.618 16.8584 11.1232 16.8449 11.1232 16.8449L14.4851 16.8234C14.4851 16.8234 14.8016 16.8743 15.0283 17.0381C15.2159 17.1736 15.3207 17.4256 15.3207 17.4256C15.3207 17.4256 15.8639 18.7745 16.5832 19.9946C17.9885 22.3772 18.6422 22.898 19.1187 22.6427C19.8138 22.271 19.6055 19.275 19.6055 19.275C19.6055 19.275 19.6182 18.1882 19.2557 17.7035C18.9748 17.3284 18.4454 17.2188 18.2118 17.1883C18.0219 17.1635 18.3326 16.7319 18.7354 16.5387C19.3408 16.2484 20.4089 16.2314 21.6714 16.2439C22.6555 16.254 22.9386 16.3139 23.323 16.4054C24.2152 16.6167 24.1873 17.294 24.1272 18.7557C24.1092 19.1928 24.0884 19.7001 24.0884 20.2861C24.0884 20.4178 24.0845 20.5581 24.0804 20.7025C24.0596 21.4513 24.0357 22.3089 24.5384 22.628C24.7962 22.7907 25.4257 22.6518 27.0013 20.0262C27.7483 18.7813 28.3076 17.3183 28.3076 17.3183C28.3076 17.3183 28.4308 17.0573 28.6207 16.9454C28.8152 16.8313 29.0776 16.8664 29.0776 16.8664L32.6155 16.8449C32.6155 16.8449 33.679 16.7195 33.8505 17.1917C34.0312 17.6854 33.4534 18.84 32.0079 20.7312C30.6366 22.5256 29.9693 23.1863 30.0306 23.7706C30.0753 24.1976 30.5091 24.5837 31.3415 25.3417C33.0791 26.9253 33.5449 27.7584 33.6568 27.9586C33.6661 27.9752 33.6729 27.9875 33.6778 27.9954C34.457 29.2641 32.8135 29.3635 32.8135 29.3635L29.6703 29.4065C29.6703 29.4065 28.9959 29.5375 28.1074 28.9388C27.6419 28.6254 27.1871 28.1135 26.7539 27.626C26.0924 26.8815 25.4812 26.1937 24.9596 26.3562C24.0838 26.6296 24.1102 28.4812 24.1102 28.4812C24.1102 28.4812 24.1171 28.8777 23.918 29.0879Z" fill="white"/>
</svg>
