<svg width="43" height="43" viewBox="0 0 43 43" fill="none" xmlns="http://www.w3.org/2000/svg">
<path fill-rule="evenodd" clip-rule="evenodd" d="M21.7464 0.781738C10.143 0.781738 0.736572 10.1882 0.736572 21.7916C0.736572 33.395 10.143 42.8014 21.7464 42.8014C33.3498 42.8014 42.7562 33.395 42.7562 21.7916C42.7562 10.1882 33.3498 0.781738 21.7464 0.781738ZM30.5019 14.5689C31.4662 14.8335 32.2256 15.6132 32.4833 16.6033C32.9516 18.3977 32.9516 22.1418 32.9516 22.1418C32.9516 22.1418 32.9516 25.8858 32.4833 27.6803C32.2256 28.6704 31.4662 29.4501 30.5019 29.7148C28.7544 30.1956 21.7464 30.1956 21.7464 30.1956C21.7464 30.1956 14.7384 30.1956 12.9908 29.7148C12.0265 29.4501 11.2671 28.6704 11.0093 27.6803C10.5411 25.8858 10.5411 22.1418 10.5411 22.1418C10.5411 22.1418 10.5411 18.3977 11.0093 16.6033C11.2671 15.6132 12.0265 14.8335 12.9908 14.5689C14.7384 14.088 21.7464 14.088 21.7464 14.088C21.7464 14.088 28.7544 14.088 30.5019 14.5689Z" fill="white"/>
<path d="M19.6453 25.9935V18.9902L25.2479 22.492L19.6453 25.9935Z" fill="white"/>
</svg>
