<svg width="118" height="25" viewBox="0 0 118 25" fill="none" xmlns="http://www.w3.org/2000/svg">
<path d="M7.43988 10.5602L11.9986 5.91752L16.5591 10.564L19.2101 7.86112L11.9986 0.511719L4.78699 7.85923L7.43988 10.5602Z" fill="white"/>
<path d="M0.260742 12.4693L2.91266 9.76739L5.56458 12.4693L2.91266 15.1712L0.260742 12.4693Z" fill="white"/>
<path d="M7.43988 14.3776L11.9986 19.0222L16.5591 14.3757L19.212 17.0748L11.9986 24.4261L4.78329 17.0767L7.43988 14.3776Z" fill="white"/>
<path d="M18.4277 12.47L21.0796 9.76805L23.7316 12.47L21.0796 15.1719L18.4277 12.47Z" fill="white"/>
<path d="M14.6885 12.468L11.9986 9.72538L10.0094 11.7521L9.77947 11.9844L9.30488 12.468L9.30859 12.4736L11.9986 15.2124L14.6904 12.468H14.6885Z" fill="white"/>
<path d="M27.8692 6.30662H33.6385C35.0697 6.30662 36.1523 6.68438 36.8865 7.43991C37.1631 7.719 37.3811 8.05243 37.5274 8.41998C37.6737 8.78753 37.7451 9.18152 37.7374 9.57806V9.61395C37.7424 9.93879 37.698 10.2625 37.6058 10.5735C37.5237 10.8412 37.4044 11.0956 37.2517 11.329C37.1093 11.5491 36.937 11.7475 36.74 11.9183C36.5475 12.0871 36.3367 12.2329 36.1116 12.3527C36.7607 12.5831 37.3444 12.9722 37.8116 13.486C38.2244 13.9645 38.4308 14.6256 38.4308 15.4693V15.5052C38.4425 16.0321 38.33 16.5542 38.1026 17.0276C37.8823 17.4638 37.5594 17.8375 37.1627 18.1155C36.7142 18.4219 36.2148 18.6427 35.6889 18.7672C35.064 18.9181 34.4234 18.9911 33.7812 18.9844H27.8692V6.30662ZM33.0601 11.4329C33.5592 11.4575 34.056 11.348 34.5005 11.1156C34.6739 11.0124 34.8155 10.8618 34.9092 10.6809C35.0029 10.4999 35.045 10.2959 35.0308 10.0918V10.0559C35.0399 9.86791 35.0024 9.68056 34.9218 9.5112C34.8411 9.34184 34.7198 9.19594 34.5691 9.08696C34.2614 8.86408 33.8171 8.75264 33.2362 8.75264L30.537 8.75264V11.4329L33.0601 11.4329ZM33.7887 16.5421C34.2859 16.5705 34.7809 16.4546 35.2161 16.2078C35.3857 16.0968 35.5229 15.9416 35.6136 15.7582C35.7042 15.5748 35.7449 15.37 35.7315 15.1652V15.1293C35.7382 14.9346 35.6979 14.7412 35.6142 14.566C35.5305 14.3908 35.4059 14.2392 35.2514 14.1244C34.9325 13.8726 34.4171 13.7467 33.7052 13.7467L30.537 13.7467V16.5421H33.7887Z" fill="white"/>
<path d="M41.8678 6.30662H44.606V18.9882H41.8678V6.30662Z" fill="white"/>
<path d="M48.7494 6.30662H51.2744L57.1104 14.1112V6.30662H59.8133V18.9882H57.483L51.4561 10.9267V18.9882H48.7494V6.30662Z" fill="white"/>
<path d="M68.1038 6.21596H70.6251L75.9587 18.9882H73.1L71.9617 16.1436H66.6986L65.5603 18.9882L62.7684 18.9882L68.1038 6.21596ZM70.9847 13.6806L69.3274 9.56672L67.6774 13.6806H70.9847Z" fill="white"/>
<path d="M78.9193 6.30662L81.4443 6.30662L87.2766 14.1112V6.30662H89.9795V18.9882H87.6492L81.6223 10.9267V18.9882H78.9193V6.30662Z" fill="white"/>
<path d="M99.8347 19.211C98.962 19.2187 98.0969 19.0465 97.2912 18.7048C96.5327 18.3857 95.8445 17.9152 95.2673 17.3209C94.69 16.7266 94.2354 16.0206 93.9301 15.2445C93.608 14.4327 93.4449 13.5646 93.45 12.6889V12.6531C93.4356 10.9271 94.0874 9.2645 95.2649 8.02356C95.8443 7.41739 96.5379 6.93682 97.3042 6.61072C98.1377 6.25895 99.0327 6.08351 99.9348 6.09507C100.468 6.09102 101.001 6.13972 101.525 6.24051C101.974 6.32695 102.413 6.46051 102.834 6.63905C103.217 6.80312 103.581 7.00962 103.919 7.25481C104.249 7.49394 104.559 7.76055 104.846 8.05189L103.105 10.0994C102.66 9.68126 102.161 9.32727 101.622 9.0473C101.092 8.78922 100.511 8.6599 99.9237 8.66953C99.4351 8.66422 98.951 8.76489 98.5035 8.96484C98.056 9.16479 97.6554 9.45946 97.3283 9.82927C97.0039 10.1981 96.7499 10.6254 96.5793 11.0891C96.4007 11.5792 96.3109 12.0982 96.3142 12.6209V12.6568C96.3125 13.1788 96.4022 13.6969 96.5793 14.1868C96.7478 14.6522 96.9992 15.0818 97.3208 15.4542C97.6454 15.8286 98.045 16.1276 98.4928 16.3309C98.9406 16.5343 99.426 16.6372 99.9163 16.6328C100.541 16.6528 101.16 16.516 101.72 16.2343C102.253 15.9382 102.746 15.5725 103.187 15.1463L104.929 16.9407C104.621 17.2809 104.289 17.5967 103.934 17.8851C103.585 18.1661 103.206 18.4062 102.805 18.601C102.377 18.8061 101.926 18.9577 101.462 19.0524C100.927 19.1618 100.381 19.215 99.8347 19.211Z" fill="white"/>
<path d="M108.16 6.30662L117.528 6.30662V8.78853H110.854V11.3611H116.731V13.843H110.863V16.5063H117.621V18.9882H108.166L108.16 6.30662Z" fill="white"/>
</svg>
