<svg width="69" height="23" viewBox="0 0 69 23" fill="none" xmlns="http://www.w3.org/2000/svg">
<g opacity="0.4">
<path d="M49.1792 17.6923V0H52.7434V17.6923H49.1792Z" fill="#B6ABC8"/>
<path d="M7.64085 22.9477H0V5.25542H7.33359C10.8978 5.25542 12.9745 7.19358 12.9745 10.2253C12.9745 12.1878 11.6407 13.456 10.7176 13.8782C11.8195 14.375 13.2301 15.4929 13.2301 17.8547C13.2301 21.1585 10.8978 22.9477 7.64085 22.9477ZM7.05148 8.33723H3.56414V12.4124H7.05148C8.56405 12.4124 9.41037 11.5923 9.41037 10.3742C9.41037 9.15738 8.56405 8.33723 7.05148 8.33723ZM7.28192 15.5186H3.56414V19.8672H7.28192C8.89779 19.8672 9.66591 18.8738 9.66591 17.6801C9.66591 16.4877 8.89636 15.5186 7.28192 15.5186Z" fill="#B6ABC8"/>
<path d="M24.1011 15.6918V22.9477H20.5621V15.6918L15.0748 5.25542H18.9462L22.3567 12.3867L25.7156 5.25542H29.587L24.1011 15.6918Z" fill="#B6ABC8"/>
<path d="M39.6916 22.9477H32.0507V5.25542H39.3843C42.9485 5.25542 45.0252 7.19358 45.0252 10.2253C45.0252 12.1878 43.6915 13.456 42.7683 13.8782C43.8702 14.375 45.2809 15.4929 45.2809 17.8547C45.2809 21.1585 42.9485 22.9477 39.6916 22.9477ZM39.1022 8.33723H35.6149V12.4124H39.1022C40.6148 12.4124 41.4611 11.5923 41.4611 10.3742C41.4611 9.15738 40.6148 8.33723 39.1022 8.33723ZM39.3326 15.5186H35.6149V19.8672H39.3326C40.9485 19.8672 41.7166 18.8738 41.7166 17.6801C41.7166 16.4877 40.9485 15.5186 39.3326 15.5186Z" fill="#B6ABC8"/>
<path d="M64.2306 8.33723V22.949H60.6664V8.33723H55.897V5.25542H69V8.33723H64.2306Z" fill="#B6ABC8"/>
</g>
</svg>
