<svg width="82" height="21" viewBox="0 0 82 21" fill="none" xmlns="http://www.w3.org/2000/svg">
<path d="M12.8117 14.618H7.32402V20.0943H12.8117V14.618Z" fill="white"/>
<path d="M7.31328 7.30898V12.7854H18.2993V7.30898H7.31328Z" fill="white"/>
<path d="M23.7977 0H7.32402V5.47638H23.7977V0Z" fill="white"/>
<path d="M5.48764 7.30898H0V12.7854H5.48764V7.30898Z" fill="white"/>
<path d="M29.2853 20.0943H33.538V11.7887H41.7319V8.28423H33.538V3.50445H42.6125V0H29.2853V20.0943Z" fill="white"/>
<path d="M44.7173 3.50445H50.8815V20.0943H55.0912V3.50445H61.2554V0H44.7173V3.50445Z" fill="white"/>
<path d="M67.978 0H63.1455L69.3312 10.0525L63.0274 20.1051H67.9029L72.0374 13.2462H72.1985L76.333 20.1051H81.23L74.9477 10.0525L81.0797 0H76.2686L72.1877 6.84815H72.0266L67.978 0Z" fill="white"/>
</svg>
