<svg width="84" height="26" viewBox="0 0 84 26" fill="none" xmlns="http://www.w3.org/2000/svg">
<path d="M30.9808 13.337H23.9614V7.17045C23.9614 6.66366 23.5512 6.25255 23.0455 6.25255H20.6691V23.2034C20.6691 23.7102 21.0793 24.1213 21.585 24.1213H23.9614V16.2147H30.9843V23.1999C30.9772 23.7067 31.3804 24.1249 31.886 24.132H34.2765V7.17045C34.2765 6.66366 33.8663 6.25255 33.3606 6.25255H30.9808V13.337ZM44.9206 10.6861V19.181C44.9276 19.9536 44.5245 20.673 43.8597 21.07C41.9996 22.1473 40.0724 20.7971 40.0724 19.0251V11.604C40.0724 11.0972 39.6622 10.6861 39.1565 10.6861H36.7802V19.3299C36.7872 22.1154 39.0363 24.3694 41.8158 24.3836H43.1666C45.9496 24.3765 48.2057 22.1154 48.2128 19.3263V11.604C48.2128 11.0972 47.8026 10.6861 47.2969 10.6861H44.9206Z" fill="white"/>
<path d="M83.2497 24.132V12.0967C83.2497 11.5899 82.8395 11.1788 82.3338 11.1788H79.9574V23.2071C79.9539 23.7139 80.3606 24.1285 80.8662 24.132H83.2497Z" fill="#676767"/>
<path d="M83.2998 8.77105C83.6877 7.83252 83.243 6.75654 82.3065 6.36778C81.3701 5.97902 80.2964 6.4247 79.9085 7.36323C79.5206 8.30176 79.9653 9.37773 80.9018 9.76649C81.8383 10.1553 82.9119 9.70958 83.2998 8.77105Z" fill="#676767"/>
<path d="M56.7068 10.6787C53.259 10.6787 50.4371 13.1488 50.4371 16.6042V18.4719C50.4371 21.9273 53.259 24.3832 56.7068 24.3832C60.1546 24.3832 62.9765 21.9273 62.9765 18.4719V16.6042C62.9801 13.1488 60.1581 10.6787 56.7068 10.6787ZM59.6702 18.6952C59.6702 20.3289 58.337 21.4169 56.7033 21.4169C55.0695 21.4169 53.7399 20.3289 53.7399 18.6952V16.3632C53.7399 14.7294 55.0731 13.6414 56.7033 13.6414C58.3335 13.6414 59.6702 14.7294 59.6702 16.3632V18.6952Z" fill="white"/>
<path d="M71.4705 10.6782C70.4379 10.6711 69.4195 10.905 68.4895 11.3551V7.18738C68.4895 6.68059 68.0793 6.26948 67.5736 6.26948H65.1973V18.4714C65.1973 21.9268 68.0192 24.3828 71.467 24.3828C74.9148 24.3828 77.7367 21.9268 77.7367 18.4714V16.6037C77.7402 13.1484 74.9254 10.6782 71.4705 10.6782ZM74.4374 18.6947C74.4374 20.3285 73.1043 21.4165 71.4705 21.4165C69.8403 21.4165 68.5072 20.3285 68.5072 18.6947V16.3628C68.5072 14.729 69.8403 13.641 71.4705 13.641C73.1007 13.641 74.4374 14.729 74.4374 16.3628V18.6947Z" fill="#676767"/>
<path d="M10.7182 7.71906C10.7182 4.11837 8.96778 1.01739 7.63462 0.010896C7.63462 0.010896 7.53207 -0.0458078 7.54268 0.0994956C7.43306 7.05634 3.88622 8.94174 1.93777 11.4792C-2.56031 17.341 1.61951 23.7662 5.88419 24.9535C8.26053 25.6197 5.33254 23.7769 4.95416 19.8891C4.49092 15.1969 10.7182 11.6104 10.7182 7.71906Z" fill="white"/>
<path d="M12.7621 10.0896C12.7339 10.0719 12.695 10.0577 12.6702 10.1038C12.5959 10.9792 11.7048 12.8504 10.5732 14.5728C6.73642 20.4062 8.92181 23.2201 10.1524 24.7334C10.8667 25.6087 10.1524 24.7334 11.9347 23.8368C14.1377 22.4971 15.5664 20.1794 15.7785 17.6064C16.1286 13.46 13.6462 10.8481 12.7621 10.0896Z" fill="#676767"/>
</svg>
