<svg width="20" height="18" viewBox="0 0 20 18" fill="none" xmlns="http://www.w3.org/2000/svg">
<path opacity="0.4" fill-rule="evenodd" clip-rule="evenodd" d="M9.99024 0.881836H10C11.3951 0.881836 12.7512 1.21657 14 1.84567L10.7415 5.13491C10.5073 5.09553 10.2537 5.066 10 5.066C7.8439 5.066 6.09756 6.82827 6.09756 9.00403C6.09756 9.26 6.12683 9.51597 6.16585 9.75226L2.5561 13.3949C1.58049 12.2529 0.731707 10.8736 0.0585366 9.28954C-0.0195122 9.11233 -0.0195122 8.89573 0.0585366 8.70868C2.14634 3.80583 5.86341 0.881836 9.99024 0.881836ZM16.4293 3.54985C17.8439 4.8494 19.0439 6.60183 19.9415 8.70868C20.0195 8.89573 20.0195 9.11233 19.9415 9.28954C17.8537 14.1924 14.1366 17.1262 10 17.1262H9.99024C8.10732 17.1262 6.30244 16.506 4.71219 15.3738L7.80488 12.2529C8.42927 12.6753 9.19024 12.9322 10 12.9322C12.1463 12.9322 13.8927 11.1699 13.8927 9.00403C13.8927 8.18689 13.639 7.41897 13.2195 6.78889L16.4293 3.54985Z" fill="#AA87E2"/>
</svg>
