<svg width="40" height="40" viewBox="0 0 40 40" fill="none" xmlns="http://www.w3.org/2000/svg">
<path d="M30.6068 9.39343C31.9996 10.7863 33.1045 12.4399 33.8584 14.2598C34.6122 16.0797 35.0002 18.0303 35.0002 20.0001C35.0002 21.9699 34.6122 23.9205 33.8584 25.7404C33.1045 27.5603 31.9996 29.2139 30.6068 30.6068C29.2139 31.9996 27.5603 33.1045 25.7404 33.8584C23.9205 34.6122 21.9699 35.0002 20.0001 35.0002C18.0303 35.0002 16.0797 34.6122 14.2598 33.8584C12.4399 33.1045 10.7863 31.9996 9.39343 30.6068C6.58036 27.7937 5 23.9784 5 20.0001C5 16.0218 6.58036 12.2065 9.39343 9.39343C12.2065 6.58036 16.0218 5 20.0001 5C23.9784 5 27.7937 6.58036 30.6068 9.39343" stroke="white" stroke-width="1.5" stroke-linecap="round" stroke-linejoin="round"/>
<path d="M28.845 32.0953C28.205 29.0287 24.5084 26.667 20 26.667C15.4917 26.667 11.795 29.0287 11.155 32.0953" stroke="white" stroke-width="1.5" stroke-linecap="round" stroke-linejoin="round"/>
<path d="M23.535 13.1318C24.0206 13.591 24.4091 14.1429 24.6777 14.7549C24.9462 15.3669 25.0894 16.0265 25.0987 16.6947C25.108 17.363 24.9832 18.0263 24.7318 18.6455C24.4803 19.2647 24.1073 19.8272 23.6347 20.2998C23.1622 20.7724 22.5996 21.1454 21.9804 21.3969C21.3612 21.6483 20.6979 21.7731 20.0297 21.7638C19.3614 21.7545 18.7018 21.6113 18.0898 21.3427C17.4779 21.0742 16.9259 20.6856 16.4667 20.2001C15.5835 19.2523 15.1027 17.9986 15.1255 16.7033C15.1484 15.408 15.6731 14.1721 16.5892 13.256C17.5053 12.3399 18.7412 11.8151 20.0366 11.7923C21.3319 11.7694 22.5855 12.2502 23.5334 13.1334" stroke="white" stroke-width="1.5" stroke-linecap="round" stroke-linejoin="round"/>
</svg>
