<svg width="117" height="110" viewBox="0 0 117 110" fill="none" xmlns="http://www.w3.org/2000/svg">
<path d="M16.4446 26.7409H26.7409L37.0373 42.1855H44.7596M16.4446 26.7409C16.4446 28.2683 15.9917 29.7613 15.1431 31.0312C14.2946 32.3012 13.0885 33.2909 11.6775 33.8754C10.2664 34.4599 8.71373 34.6128 7.21575 34.3148C5.71777 34.0169 4.34178 33.2814 3.26179 32.2014C2.18181 31.1214 1.44635 29.7454 1.14839 28.2475C0.85042 26.7495 1.00334 25.1968 1.58782 23.7857C2.17231 22.3747 3.16207 21.1686 4.43199 20.3201C5.70191 19.4715 7.19496 19.0187 8.72228 19.0187C10.7704 19.0187 12.7346 19.8322 14.1828 21.2805C15.631 22.7287 16.4446 24.6929 16.4446 26.7409ZM16.4446 55.056C16.4446 56.5833 15.9917 58.0763 15.1431 59.3463C14.2946 60.6162 13.0885 61.606 11.6775 62.1904C10.2664 62.7749 8.71373 62.9278 7.21575 62.6299C5.71777 62.3319 4.34178 61.5964 3.26179 60.5165C2.18181 59.4365 1.44635 58.0605 1.14839 56.5625C0.85042 55.0645 1.00334 53.5118 1.58782 52.1008C2.17231 50.6897 3.16207 49.4837 4.43199 48.6351C5.70191 47.7866 7.19496 47.3337 8.72228 47.3337C10.7704 47.3337 12.7346 48.1473 14.1828 49.5955C15.631 51.0437 16.4446 53.0079 16.4446 55.056ZM16.4446 55.056H60.2042M37.0373 13.8705L47.3337 29.315H60.2042M16.4446 83.371C16.4446 81.8437 15.9917 80.3506 15.1431 79.0807C14.2946 77.8108 13.0885 76.821 11.6775 76.2366C10.2664 75.6521 8.71373 75.4992 7.21575 75.7971C5.71777 76.0951 4.34178 76.8305 3.26179 77.9105C2.18181 78.9905 1.44635 80.3665 1.14839 81.8645C0.85042 83.3625 1.00334 84.9152 1.58782 86.3262C2.17231 87.7373 3.16207 88.9433 4.43199 89.7919C5.70191 90.6404 7.19496 91.0933 8.72228 91.0933C10.7704 91.0933 12.7346 90.2797 14.1828 88.8315C15.631 87.3833 16.4446 85.4191 16.4446 83.371ZM16.4446 83.371L26.7409 83.371L37.0373 67.9265H85.9451V75.3656L115.47 55.3649L85.9451 34.1801V42.1855H60.2042M37.0373 96.2415L47.3337 80.7969H60.2042M75.6487 55.056H80.7969M65.3524 55.056H70.5006M65.3524 29.315H70.5006M65.3524 80.7969H70.5006M55.056 42.1855H49.9078M39.6114 8.72228C39.6114 10.2496 39.1585 11.7426 38.31 13.0126C37.4615 14.2825 36.2554 15.2723 34.8443 15.8567C33.4333 16.4412 31.8806 16.5941 30.3826 16.2962C28.8846 15.9982 27.5086 15.2627 26.4286 14.1828C25.3487 13.1028 24.6132 11.7268 24.3152 10.2288C24.0173 8.73084 24.1702 7.17814 24.7547 5.76708C25.3392 4.35602 26.3289 3.14996 27.5988 2.30142C28.8688 1.45289 30.3618 1 31.8891 1C33.9372 1 35.9014 1.81359 37.3496 3.2618C38.7978 4.71001 39.6114 6.67421 39.6114 8.72228ZM39.6114 101.39C39.6114 99.8624 39.1585 98.3693 38.31 97.0994C37.4615 95.8295 36.2554 94.8397 34.8443 94.2552C33.4333 93.6707 31.8806 93.5178 30.3826 93.8158C28.8846 94.1138 27.5086 94.8492 26.4286 95.9292C25.3487 97.0092 24.6132 98.3852 24.3152 99.8831C24.0173 101.381 24.1702 102.934 24.7547 104.345C25.3392 105.756 26.3289 106.962 27.5988 107.811C28.8688 108.659 30.3618 109.112 31.8891 109.112C33.9372 109.112 35.9014 108.298 37.3496 106.85C38.7978 105.402 39.6114 103.438 39.6114 101.39Z" stroke="url(#paint0_linear_77_167)" stroke-width="1.5" stroke-miterlimit="10"/>
<defs>
<linearGradient id="paint0_linear_77_167" x1="58.235" y1="1" x2="58.235" y2="109.112" gradientUnits="userSpaceOnUse">
<stop stop-color="#5A2FED"/>
<stop offset="1" stop-color="#C67EFF"/>
</linearGradient>
</defs>
</svg>
