<svg width="108" height="108" viewBox="0 0 108 108" fill="none" xmlns="http://www.w3.org/2000/svg">
<path d="M37.8696 93.9239C38.2838 93.9239 38.6196 93.5881 38.6196 93.1739C38.6196 92.7597 38.2838 92.4239 37.8696 92.4239V93.9239ZM5.6087 93.1739H4.8587V93.9239H5.6087V93.1739ZM6.3587 65.5217C6.3587 65.1075 6.02291 64.7717 5.6087 64.7717C5.19448 64.7717 4.8587 65.1075 4.8587 65.5217H6.3587ZM107 14.8261H107.75V14.0761H107V14.8261ZM28.2835 8.53519L28.5763 9.22565L28.88 9.09684L28.9903 8.78594L28.2835 8.53519ZM30.9565 1V0.25H30.4268L30.2497 0.749253L30.9565 1ZM40.1739 1L40.8801 0.747334L40.7021 0.25H40.1739V1ZM42.87 8.53519L42.1639 8.78786L42.2755 9.09978L42.5812 9.22736L42.87 8.53519ZM49.5526 11.3235L49.2638 12.0157L49.5733 12.1448L49.8759 12.0002L49.5526 11.3235ZM56.7882 7.86698L57.3214 7.33949L56.9462 6.96032L56.465 7.19024L56.7882 7.86698ZM63.2174 14.3652L63.8941 14.6885L64.1215 14.2126L63.7505 13.8377L63.2174 14.3652ZM59.7609 21.6009L59.0841 21.2776L58.9396 21.5802L59.0687 21.8897L59.7609 21.6009ZM62.5491 28.2835L61.8569 28.5723L61.9853 28.8799L62.2997 28.9908L62.5491 28.2835ZM70.1304 30.9565H70.8804V30.4257L70.3798 30.2492L70.1304 30.9565ZM70.1304 40.1739L70.3831 40.8801L70.8804 40.7021V40.1739H70.1304ZM62.5952 42.87L62.3426 42.1639L62.0306 42.2755L61.9031 42.5812L62.5952 42.87ZM59.8069 49.5526L59.1148 49.2638L58.9856 49.5733L59.1302 49.8759L59.8069 49.5526ZM63.2635 56.7882L63.7909 57.3214L64.1701 56.9462L63.9402 56.465L63.2635 56.7882ZM56.7652 63.2174L56.442 63.8941L56.9178 64.1215L57.2927 63.7505L56.7652 63.2174ZM49.5296 59.7609L49.8528 59.0841L49.5502 58.9396L49.2408 59.0687L49.5296 59.7609ZM42.847 62.5491L42.5582 61.8569L42.2505 61.9853L42.1396 62.2997L42.847 62.5491ZM40.1739 70.1304V70.8804H40.7047L40.8812 70.3798L40.1739 70.1304ZM30.9565 70.1304L30.2504 70.3831L30.4283 70.8804H30.9565V70.1304ZM28.2604 62.5952L28.9666 62.3426L28.855 62.0306L28.5492 61.9031L28.2604 62.5952ZM21.5778 59.8069L21.8666 59.1148L21.5588 58.9863L21.2572 59.1289L21.5778 59.8069ZM14.3652 63.2174L13.8349 63.7477L14.2083 64.1212L14.6858 63.8954L14.3652 63.2174ZM7.91304 56.7652L7.2363 56.442L7.00768 56.9205L7.38271 57.2956L7.91304 56.7652ZM11.3696 49.5296L12.0463 49.8528L12.1909 49.5502L12.0617 49.2408L11.3696 49.5296ZM8.58132 42.847L9.27349 42.5582L9.14512 42.2505L8.83071 42.1396L8.58132 42.847ZM1 40.1739H0.25V40.7047L0.75061 40.8812L1 40.1739ZM1 30.9565L0.747334 30.2504L0.25 30.4283V30.9565H1ZM8.53519 28.2604L8.78786 28.9666L9.09978 28.855L9.22736 28.5492L8.53519 28.2604ZM11.3235 21.5778L12.0157 21.8666L12.1441 21.5588L12.0015 21.2572L11.3235 21.5778ZM7.91304 14.3652L7.38271 13.8349L7.00925 14.2083L7.23502 14.6858L7.91304 14.3652ZM14.3652 7.91304L14.6885 7.2363L14.2099 7.00768L13.8349 7.38271L14.3652 7.91304ZM21.6009 11.3696L21.2776 12.0463L21.5826 12.192L21.8937 12.06L21.6009 11.3696ZM74.7391 23.2935C74.3249 23.2935 73.9891 23.6293 73.9891 24.0435C73.9891 24.4577 74.3249 24.7935 74.7391 24.7935V23.2935ZM107 24.7935C107.414 24.7935 107.75 24.4577 107.75 24.0435C107.75 23.6293 107.414 23.2935 107 23.2935V24.7935ZM37.8696 92.4239H5.6087V93.9239H37.8696V92.4239ZM6.3587 93.1739V65.5217H4.8587V93.1739H6.3587ZM47.087 98.5326H51.6957V97.0326H47.087V98.5326ZM56.3043 98.5326H60.913V97.0326H56.3043V98.5326ZM65.5217 98.5326H79.3478V97.0326H65.5217V98.5326ZM83.9565 98.5326H88.5652V97.0326H83.9565V98.5326ZM93.1739 98.5326H97.7826V97.0326H93.1739V98.5326ZM47.087 89.3152H51.6957V87.8152H47.087V89.3152ZM56.3043 89.3152H60.913V87.8152H56.3043V89.3152ZM65.5217 89.3152H70.1304V87.8152H65.5217V89.3152ZM74.7391 89.3152H79.3478V87.8152H74.7391V89.3152ZM83.9565 89.3152H88.5652V87.8152H83.9565V89.3152ZM93.1739 89.3152H97.7826V87.8152H93.1739V89.3152ZM56.3043 80.0978H102.391V78.5978H56.3043V80.0978ZM102.391 80.0978C103.415 80.0978 104.396 80.5044 105.12 81.228L106.18 80.1674C105.176 79.1624 103.813 78.5978 102.391 78.5978V80.0978ZM105.12 81.228C105.843 81.9517 106.25 82.9331 106.25 83.9565H107.75C107.75 82.5353 107.185 81.1723 106.18 80.1674L105.12 81.228ZM106.25 83.9565V102.391H107.75V83.9565H106.25ZM106.25 102.391C106.25 103.415 105.843 104.396 105.12 105.12L106.18 106.18C107.185 105.176 107.75 103.813 107.75 102.391H106.25ZM105.12 105.12C104.396 105.843 103.415 106.25 102.391 106.25V107.75C103.813 107.75 105.176 107.185 106.18 106.18L105.12 105.12ZM102.391 106.25H42.4783V107.75H102.391V106.25ZM42.4783 106.25C41.4549 106.25 40.4734 105.843 39.7497 105.12L38.6891 106.18C39.694 107.185 41.057 107.75 42.4783 107.75V106.25ZM39.7497 105.12C39.0261 104.396 38.6196 103.415 38.6196 102.391H37.1196C37.1196 103.813 37.6841 105.176 38.6891 106.18L39.7497 105.12ZM38.6196 102.391V83.9565H37.1196V102.391H38.6196ZM38.6196 83.9565C38.6196 82.9331 39.0261 81.9517 39.7497 81.228L38.6891 80.1674C37.6841 81.1723 37.1196 82.5353 37.1196 83.9565H38.6196ZM39.7497 81.228C40.4734 80.5044 41.4549 80.0978 42.4783 80.0978V78.5978C41.057 78.5978 39.694 79.1624 38.6891 80.1674L39.7497 81.228ZM42.4783 80.0978H51.6957V78.5978H42.4783V80.0978ZM84.7065 79.3478V50.5435H83.2065V79.3478H84.7065ZM84.7065 50.5435C84.7065 49.2145 85.2345 47.94 86.1742 47.0003L85.1135 45.9396C83.8925 47.1606 83.2065 48.8167 83.2065 50.5435H84.7065ZM86.1742 47.0003C87.1139 46.0605 88.3884 45.5326 89.7174 45.5326V44.0326C87.9906 44.0326 86.3345 44.7186 85.1135 45.9396L86.1742 47.0003ZM89.7174 45.5326C91.0463 45.5326 92.3209 46.0605 93.2606 47.0003L94.3213 45.9396C93.1002 44.7186 91.4442 44.0326 89.7174 44.0326V45.5326ZM93.2606 47.0003C94.2003 47.94 94.7283 49.2145 94.7283 50.5435H96.2283C96.2283 48.8167 95.5423 47.1606 94.3213 45.9396L93.2606 47.0003ZM94.7283 50.5435V66.6739H96.2283V50.5435H94.7283ZM94.7283 66.6739C94.7283 68.4007 95.4142 70.0568 96.6353 71.2778L97.6959 70.2171C96.7562 69.2774 96.2283 68.0029 96.2283 66.6739H94.7283ZM96.6353 71.2778C97.8563 72.4988 99.5123 73.1848 101.239 73.1848V71.6848C99.9102 71.6848 98.6356 71.1568 97.6959 70.2171L96.6353 71.2778ZM101.239 73.1848C102.966 73.1848 104.622 72.4988 105.843 71.2778L104.782 70.2171C103.843 71.1568 102.568 71.6848 101.239 71.6848V73.1848ZM105.843 71.2778C107.064 70.0568 107.75 68.4007 107.75 66.6739H106.25C106.25 68.0029 105.722 69.2774 104.782 70.2171L105.843 71.2778ZM107.75 66.6739V14.8261H106.25V66.6739H107.75ZM107 14.0761H62.0652V15.5761H107V14.0761ZM28.9903 8.78594L31.6634 1.25075L30.2497 0.749253L27.5766 8.28445L28.9903 8.78594ZM30.9565 1.75H40.1739V0.25H30.9565V1.75ZM39.4678 1.25267L42.1639 8.78786L43.5762 8.28253L40.8801 0.747334L39.4678 1.25267ZM42.5812 9.22736L49.2638 12.0157L49.8414 10.6313L43.1588 7.84303L42.5812 9.22736ZM49.8759 12.0002L57.1115 8.54373L56.465 7.19024L49.2293 10.6468L49.8759 12.0002ZM56.2551 8.39447L62.6842 14.8927L63.7505 13.8377L57.3214 7.33949L56.2551 8.39447ZM62.5406 14.0419L59.0841 21.2776L60.4376 21.9242L63.8941 14.6885L62.5406 14.0419ZM59.0687 21.8897L61.8569 28.5723L63.2413 27.9947L60.453 21.3121L59.0687 21.8897ZM62.2997 28.9908L69.881 31.6638L70.3798 30.2492L62.7985 27.5761L62.2997 28.9908ZM69.3804 30.9565V40.1739H70.8804V30.9565H69.3804ZM69.8778 39.4678L62.3426 42.1639L62.8479 43.5762L70.3831 40.8801L69.8778 39.4678ZM61.9031 42.5812L59.1148 49.2638L60.4991 49.8414L63.2874 43.1588L61.9031 42.5812ZM59.1302 49.8759L62.5867 57.1115L63.9402 56.465L60.4837 49.2293L59.1302 49.8759ZM62.736 56.2551L56.2378 62.6842L57.2927 63.7505L63.7909 57.3214L62.736 56.2551ZM57.0885 62.5406L49.8528 59.0841L49.2063 60.4376L56.442 63.8941L57.0885 62.5406ZM49.2408 59.0687L42.5582 61.8569L43.1358 63.2413L49.8184 60.453L49.2408 59.0687ZM42.1396 62.2997L39.4666 69.881L40.8812 70.3798L43.5543 62.7985L42.1396 62.2997ZM40.1739 69.3804H30.9565V70.8804H40.1739V69.3804ZM31.6627 69.8778L28.9666 62.3426L27.5542 62.8479L30.2504 70.3831L31.6627 69.8778ZM28.5492 61.9031L21.8666 59.1148L21.289 60.4991L27.9716 63.2874L28.5492 61.9031ZM21.2572 59.1289L14.0446 62.5394L14.6858 63.8954L21.8984 60.485L21.2572 59.1289ZM14.8955 62.6871L8.44337 56.2349L7.38271 57.2956L13.8349 63.7477L14.8955 62.6871ZM8.58979 57.0885L12.0463 49.8528L10.6928 49.2063L7.2363 56.442L8.58979 57.0885ZM12.0617 49.2408L9.27349 42.5582L7.88916 43.1358L10.6774 49.8184L12.0617 49.2408ZM8.83071 42.1396L1.24939 39.4666L0.75061 40.8812L8.33193 43.5543L8.83071 42.1396ZM1.75 40.1739V30.9565H0.25V40.1739H1.75ZM1.25267 31.6627L8.78786 28.9666L8.28253 27.5542L0.747334 30.2504L1.25267 31.6627ZM9.22736 28.5492L12.0157 21.8666L10.6313 21.289L7.84303 27.9716L9.22736 28.5492ZM12.0015 21.2572L8.59107 14.0446L7.23502 14.6858L10.6455 21.8984L12.0015 21.2572ZM8.44337 14.8955L14.8955 8.44337L13.8349 7.38271L7.38271 13.8349L8.44337 14.8955ZM14.0419 8.58979L21.2776 12.0463L21.9242 10.6928L14.6885 7.2363L14.0419 8.58979ZM21.8937 12.06L28.5763 9.22565L27.9906 7.84473L21.308 10.6791L21.8937 12.06ZM43.4565 36.0952C43.4565 40.4535 39.9235 43.9865 35.5652 43.9865V45.4865C40.7519 45.4865 44.9565 41.2819 44.9565 36.0952H43.4565ZM35.5652 43.9865C31.207 43.9865 27.6739 40.4535 27.6739 36.0952H26.1739C26.1739 41.2819 30.3785 45.4865 35.5652 45.4865V43.9865ZM27.6739 36.0952C27.6739 31.737 31.207 28.2039 35.5652 28.2039V26.7039C30.3785 26.7039 26.1739 30.9085 26.1739 36.0952H27.6739ZM35.5652 28.2039C39.9235 28.2039 43.4565 31.737 43.4565 36.0952H44.9565C44.9565 30.9085 40.7519 26.7039 35.5652 26.7039V28.2039ZM74.7391 24.7935H107V23.2935H74.7391V24.7935Z" fill="url(#paint0_linear_77_172)"/>
<defs>
<linearGradient id="paint0_linear_77_172" x1="54" y1="1" x2="54" y2="107" gradientUnits="userSpaceOnUse">
<stop stop-color="#5A2FED"/>
<stop offset="1" stop-color="#C67EFF"/>
</linearGradient>
</defs>
</svg>
