<svg width="124" height="111" viewBox="0 0 124 111" fill="none" xmlns="http://www.w3.org/2000/svg">
<path d="M74.842 41.1754C75.0583 41.5287 75.52 41.6397 75.8732 41.4235C76.2265 41.2072 76.3375 40.7455 76.1212 40.3922L74.842 41.1754ZM52.3639 3.02571L51.7233 3.41572L51.7243 3.41733L52.3639 3.02571ZM48.737 1.00006L48.7347 1.75008L48.7409 1.75005L48.737 1.00006ZM45.1133 3.03567L45.753 3.42729L45.755 3.42392L45.1133 3.03567ZM1.63631 74.0464L2.27472 74.44L2.27594 74.438L1.63631 74.0464ZM5.25994 80.5676L5.25699 81.3176H5.25994V80.5676ZM59.346 81.3176C59.7602 81.3176 60.096 80.9818 60.096 80.5676C60.096 80.1534 59.7602 79.8176 59.346 79.8176V81.3176ZM94.5752 38.1316C94.5752 37.7173 94.2395 37.3816 93.8252 37.3816C93.411 37.3816 93.0752 37.7173 93.0752 38.1316H94.5752ZM123 99.1333V99.8833C123.414 99.8833 123.75 99.5475 123.75 99.1333H123ZM123 93.8288H123.75C123.75 93.5896 123.636 93.3647 123.443 93.2235L123 93.8288ZM64.6505 93.8288L64.2077 93.2235C64.0146 93.3647 63.9005 93.5896 63.9005 93.8288H64.6505ZM64.6505 99.1333H63.9005C63.9005 99.5475 64.2363 99.8833 64.6505 99.8833V99.1333ZM47.987 27.5226V56.6973H49.487V27.5226H47.987ZM47.987 62.0018V69.9586H49.487V62.0018H47.987ZM76.1212 40.3922L53.0036 2.63409L51.7243 3.41733L74.842 41.1754L76.1212 40.3922ZM53.0045 2.6357C52.5587 1.90344 51.9311 1.29894 51.1827 0.880923L50.4512 2.19052C50.9738 2.48238 51.412 2.90445 51.7233 3.41572L53.0045 2.6357ZM51.1827 0.880923C50.4342 0.462903 49.5903 0.245583 48.733 0.250068L48.7409 1.75005C49.3395 1.74692 49.9287 1.89865 50.4512 2.19052L51.1827 0.880923ZM48.7392 0.250061C47.8815 0.24747 47.0377 0.466874 46.2899 0.886971L47.0245 2.19475C47.5467 1.90144 48.1358 1.74824 48.7347 1.75005L48.7392 0.250061ZM46.2899 0.886971C45.5421 1.30707 44.9157 1.91355 44.4717 2.64741L45.755 3.42392C46.065 2.91152 46.5024 2.48806 47.0245 2.19475L46.2899 0.886971ZM44.4737 2.64404L0.996673 73.6548L2.27594 74.438L45.753 3.42729L44.4737 2.64404ZM0.997894 73.6528C0.529226 74.4129 0.271521 75.2842 0.25129 76.177L1.75091 76.211C1.7651 75.5846 1.9459 74.9733 2.27472 74.44L0.997894 73.6528ZM0.25129 76.177C0.23106 77.0698 0.449033 77.9519 0.882793 78.7325L2.19397 78.0039C1.88965 77.4562 1.73671 76.8374 1.75091 76.211L0.25129 76.177ZM0.882793 78.7325C1.31656 79.5131 1.95045 80.164 2.71922 80.6183L3.4824 79.327C2.94299 79.0082 2.49828 78.5516 2.19397 78.0039L0.882793 78.7325ZM2.71922 80.6183C3.48801 81.0727 4.36396 81.3141 5.25699 81.3176L5.26289 79.8176C4.63637 79.8151 4.0218 79.6458 3.4824 79.327L2.71922 80.6183ZM5.25994 81.3176H59.346V79.8176H5.25994V81.3176ZM93.0752 38.1316V43.4361H94.5752V38.1316H93.0752ZM123.75 99.1333V93.8288H122.25V99.1333H123.75ZM123.443 93.2235C120.365 90.9723 118.469 88.4331 117.331 85.5097C116.187 82.5696 115.793 79.1992 115.793 75.2631H114.293C114.293 79.2836 114.692 82.8655 115.933 86.0538C117.181 89.2587 119.263 92.024 122.557 94.4342L123.443 93.2235ZM115.793 75.2631V64.6541H114.293V75.2631H115.793ZM115.793 64.6541C115.793 58.8278 113.479 53.2401 109.359 49.1203L108.298 50.181C112.137 54.0195 114.293 59.2256 114.293 64.6541H115.793ZM109.359 49.1203C105.239 45.0005 99.6515 42.6861 93.8252 42.6861V44.1861C99.2537 44.1861 104.46 46.3425 108.298 50.181L109.359 49.1203ZM93.8252 42.6861C87.999 42.6861 82.4113 45.0005 78.2915 49.1203L79.3522 50.181C83.1907 46.3425 88.3968 44.1861 93.8252 44.1861V42.6861ZM78.2915 49.1203C74.1717 53.2401 71.8572 58.8278 71.8572 64.6541H73.3572C73.3572 59.2256 75.5137 54.0195 79.3522 50.181L78.2915 49.1203ZM71.8572 64.6541V75.2631H73.3572V64.6541H71.8572ZM71.8572 75.2631C71.8572 79.1992 71.4639 82.5696 70.3195 85.5097C69.1816 88.4331 67.285 90.9723 64.2077 93.2235L65.0933 94.4342C68.388 92.024 70.4698 89.2587 71.7173 86.0538C72.9583 82.8655 73.3572 79.2836 73.3572 75.2631H71.8572ZM63.9005 93.8288V99.1333H65.4005V93.8288H63.9005ZM64.6505 99.8833H123V98.3833H64.6505V99.8833ZM101.032 104.438C101.032 105.574 100.341 106.695 99.035 107.565C97.7342 108.432 95.8943 108.992 93.8252 108.992V110.492C96.149 110.492 98.2875 109.866 99.8669 108.813C101.441 107.764 102.532 106.232 102.532 104.438H101.032ZM93.8252 108.992C91.7562 108.992 89.9163 108.432 88.6155 107.565C87.3095 106.695 86.6185 105.574 86.6185 104.438H85.1185C85.1185 106.232 86.2094 107.764 87.7836 108.813C89.363 109.866 91.5015 110.492 93.8252 110.492V108.992Z" fill="url(#paint0_linear_67_181)"/>
<defs>
<linearGradient id="paint0_linear_67_181" x1="62" y1="1" x2="62" y2="109.742" gradientUnits="userSpaceOnUse">
<stop stop-color="#5A2FED"/>
<stop offset="1" stop-color="#C67EFF"/>
</linearGradient>
</defs>
</svg>
