<svg width="108" height="108" viewBox="0 0 108 108" fill="none" xmlns="http://www.w3.org/2000/svg">
<path d="M40.1739 64.1391V49.3913C40.1739 48.169 40.6595 46.9968 41.5238 46.1325C42.3881 45.2682 43.5603 44.7826 44.7826 44.7826H63.2174C64.4397 44.7826 65.6119 45.2682 66.4762 46.1325C67.3405 46.9968 67.8261 48.169 67.8261 49.3913V64.1391M60.913 28.6522C60.913 32.4701 57.818 35.5652 54 35.5652C50.182 35.5652 47.087 32.4701 47.087 28.6522C47.087 24.8342 50.182 21.7391 54 21.7391C57.818 21.7391 60.913 24.8342 60.913 28.6522ZM1 1H107V107H1V1ZM81.6522 40.1739C81.6522 55.4458 69.2719 67.8261 54 67.8261C38.7281 67.8261 26.3478 55.4458 26.3478 40.1739C26.3478 24.902 38.7281 12.5217 54 12.5217C69.2719 12.5217 81.6522 24.902 81.6522 40.1739ZM49.3913 88.5652C49.3913 90.3987 48.663 92.157 47.3665 93.4535C46.0701 94.7499 44.3117 95.4783 42.4783 95.4783H19.4348C17.6013 95.4783 15.843 94.7499 14.5465 93.4535C13.2501 92.157 12.5217 90.3987 12.5217 88.5652C12.5217 86.7318 13.2501 84.9734 14.5465 83.6769C15.843 82.3805 17.6013 81.6522 19.4348 81.6522H42.4783C44.3117 81.6522 46.0701 82.3805 47.3665 83.6769C48.663 84.9734 49.3913 86.7318 49.3913 88.5652ZM72.4348 88.5652C72.4348 92.3832 69.3397 95.4783 65.5217 95.4783C61.7038 95.4783 58.6087 92.3832 58.6087 88.5652C58.6087 84.7472 61.7038 81.6522 65.5217 81.6522C69.3397 81.6522 72.4348 84.7472 72.4348 88.5652ZM95.4783 88.5652C95.4783 92.3832 92.3832 95.4783 88.5652 95.4783C84.7472 95.4783 81.6522 92.3832 81.6522 88.5652C81.6522 84.7472 84.7472 81.6522 88.5652 81.6522C92.3832 81.6522 95.4783 84.7472 95.4783 88.5652Z" stroke="url(#paint0_linear_67_186)" stroke-width="1.5" stroke-miterlimit="10"/>
<defs>
<linearGradient id="paint0_linear_67_186" x1="54" y1="1" x2="54" y2="107" gradientUnits="userSpaceOnUse">
<stop stop-color="#5A2FED"/>
<stop offset="1" stop-color="#C67EFF"/>
</linearGradient>
</defs>
</svg>
