<svg width="86" height="86" viewBox="0 0 86 86" fill="none" xmlns="http://www.w3.org/2000/svg">
<path d="M59.4348 59.4348L75.9061 75.9061M26.5652 17.4348L30.2174 21.087V35.6957M30.2174 35.6957C31.3009 35.6957 32.3601 36.0169 33.261 36.6189C34.1619 37.2209 34.864 38.0765 35.2786 39.0775C35.6933 40.0785 35.8018 41.18 35.5904 42.2427C35.379 43.3054 34.8573 44.2815 34.0911 45.0476C33.325 45.8138 32.3488 46.3355 31.2861 46.5469C30.2235 46.7583 29.122 46.6498 28.1209 46.2352C27.1199 45.8205 26.2643 45.1184 25.6624 44.2175C25.0604 43.3166 24.7391 42.2574 24.7391 41.1739C24.7391 39.721 25.3163 38.3276 26.3437 37.3002C27.371 36.2728 28.7645 35.6957 30.2174 35.6957ZM44.8261 32.0435V44.8261L48.4783 48.4783M24.7391 13.7826L21.087 10.1304M19.2609 59.4348L15.6087 55.7826M43 4.65217L39.3478 1M55.7826 55.7826L52.1304 52.1304M15.6087 32.0435V44.8261L26.5652 55.7826H43L50.3043 63.087H53.9565L57.6087 66.7391V70.3913L61.2609 74.0435H64.913L66.7391 75.8696V79.5217L72.2174 85H85V74.0435L57.6087 46.6522V19.2609L46.6522 8.30435M39.3478 13.7826L28.3913 2.82609H19.2609L1 21.087V41.1739L11.9565 52.1304M44.8261 21.087C45.9096 21.087 46.9688 21.4083 47.8697 22.0102C48.7706 22.6122 49.4727 23.4678 49.8873 24.4688C50.302 25.4698 50.4105 26.5713 50.1991 27.634C49.9877 28.6967 49.466 29.6728 48.6998 30.4389C47.9337 31.2051 46.9575 31.7268 45.8948 31.9382C44.8322 32.1496 43.7307 32.0411 42.7296 31.6265C41.7286 31.2118 40.873 30.5097 40.2711 29.6088C39.6691 28.7079 39.3478 27.6487 39.3478 26.5652C39.3478 25.1123 39.925 23.7189 40.9524 22.6915C41.9797 21.6641 43.3732 21.087 44.8261 21.087ZM15.6087 21.087C16.6922 21.087 17.7514 21.4083 18.6523 22.0102C19.5532 22.6122 20.2553 23.4678 20.6699 24.4688C21.0846 25.4698 21.1931 26.5713 20.9817 27.634C20.7703 28.6967 20.2486 29.6728 19.4824 30.4389C18.7163 31.2051 17.7401 31.7268 16.6774 31.9382C15.6148 32.1496 14.5133 32.0411 13.5122 31.6265C12.5112 31.2118 11.6556 30.5097 11.0537 29.6088C10.4517 28.7079 10.1304 27.6487 10.1304 26.5652C10.1304 25.1123 10.7076 23.7189 11.735 22.6915C12.7623 21.6641 14.1558 21.087 15.6087 21.087Z" stroke="url(#paint0_linear_77_280)" stroke-width="1.5" stroke-miterlimit="10"/>
<defs>
<linearGradient id="paint0_linear_77_280" x1="43" y1="1" x2="43" y2="85" gradientUnits="userSpaceOnUse">
<stop stop-color="#5A2FED"/>
<stop offset="1" stop-color="#C67EFF"/>
</linearGradient>
</defs>
</svg>
