<svg width="124" height="80" viewBox="0 0 124 80" fill="none" xmlns="http://www.w3.org/2000/svg">
<path d="M26.0588 22.482C25.4512 19.1423 25.0311 15.7712 24.8003 12.3846C24.7553 11.7764 24.8847 11.168 25.1735 10.6309C25.4624 10.0938 25.8985 9.65028 26.4307 9.35247C37.813 3.8552 50.29 1 62.9302 1C75.5705 1 88.0475 3.8552 99.4298 9.35247C99.962 9.65028 100.398 10.0938 100.687 10.6309C100.976 11.168 101.105 11.7764 101.06 12.3846C100.276 24.2468 97.0637 35.8215 91.6216 46.3909C86.1794 56.9602 78.6239 66.2987 69.4235 73.8274L64.9898 77.4602C64.4128 77.9444 63.6835 78.2099 62.9302 78.2099C62.1769 78.2099 61.4477 77.9444 60.8707 77.4602L56.437 73.8274C50.1721 68.732 44.6546 62.7812 40.0465 56.1497M54.8065 56.4071C57.3127 59.2563 60.0282 61.9144 62.9302 64.3592C77.1164 52.3997 86.4112 35.6426 89.0463 17.276C72.232 10.8312 53.6285 10.8312 36.8142 17.276M48.6279 28.3746V51.2583M40.0465 36.956H48.6279M105.837 36.956V42.6769C105.837 44.1942 105.234 45.6493 104.162 46.7222C103.089 47.7951 101.634 48.3978 100.116 48.3978M123 28.3746V51.2583M114.419 36.956H123M8.5814 28.3746V51.2583M0 36.956H8.5814M25.7442 48.3978C24.2269 48.3978 22.7718 47.7951 21.6989 46.7222C20.626 45.6493 20.0233 44.1942 20.0233 42.6769V36.956C20.0233 35.4387 20.626 33.9835 21.6989 32.9106C22.7718 31.8378 24.2269 31.235 25.7442 31.235C27.2615 31.235 28.7166 31.8378 29.7895 32.9106C30.8624 33.9835 31.4651 35.4387 31.4651 36.956V42.6769C31.4651 44.1942 30.8624 45.6493 29.7895 46.7222C28.7166 47.7951 27.2615 48.3978 25.7442 48.3978Z" stroke="url(#paint0_linear_77_292)" stroke-width="2" stroke-miterlimit="10"/>
<defs>
<linearGradient id="paint0_linear_77_292" x1="61.5" y1="1" x2="61.5" y2="78.2099" gradientUnits="userSpaceOnUse">
<stop stop-color="#5A2FED"/>
<stop offset="1" stop-color="#C67EFF"/>
</linearGradient>
</defs>
</svg>
