<svg xmlns="http://www.w3.org/2000/svg" viewBox="0 0 24 24" fill="currentColor" aria-hidden="true" class="bit-tooltip    "><path fill-rule="evenodd" d="M7.323 11.116a1.25 1.25 0 000 1.768l3.793 3.793a1.25 1.25 0 001.768 0l3.793-3.793a1.25 1.25 0 000-1.768l-3.793-3.793a1.25 1.25 0 00-1.768 0l-3.793 3.793zM12 15.44L8.56 12 12 8.56 15.44 12 12 15.44z" clip-rule="evenodd"></path> <path fill-rule="evenodd" d="M1.5 12c0 5.799 4.701 10.5 10.5 10.5S22.5 17.799 22.5 12 17.799 1.5 12 1.5 1.5 6.201 1.5 12zM12 21a9 9 0 110-18 9 9 0 010 18z" clip-rule="evenodd"></path></svg>