<svg xmlns="http://www.w3.org/2000/svg" viewBox="0 0 24 24" fill="currentColor" aria-hidden="true" class="bit-tooltip  "><path fill-rule="evenodd" d="M3.75 7.983a4.6 4.6 0 119.2 0 4.6 4.6 0 01-9.2 0zm4.6-6.1a6.1 6.1 0 100 12.2 6.1 6.1 0 000-12.2zm8.489 8.335l1.572 1.573 1.573-1.573-1.573-1.572-1.573 1.572zm-1.312-.724c-.4.4-.4 1.049 0 1.449l2.16 2.16c.4.4 1.048.4 1.449 0l2.16-2.16c.4-.4.4-1.05 0-1.45l-2.16-2.16c-.4-.4-1.05-.4-1.45 0l-2.16 2.16zm-12 6.094a.769.769 0 100 1.537h7.53L8.6 20.198c-.645.807-.07 2.002.963 2.002h5.351c1.033 0 1.608-1.195.963-2.002l-2.457-3.073h7.53a.769.769 0 100-1.537H3.529zm6.468 5.172l2.244-2.807 2.244 2.807H9.995z" clip-rule="evenodd"></path></svg>