<svg xmlns="http://www.w3.org/2000/svg" viewBox="0 0 24 24" fill="currentColor" aria-hidden="true" class=""><path fill-rule="evenodd" d="M19.5 5.5a2 2 0 11-4 0 2 2 0 014 0zm1.5 0a3.5 3.5 0 11-7 0 3.5 3.5 0 017 0zm-12.5 3a2 2 0 11-4 0 2 2 0 014 0zm1.5 0a3.5 3.5 0 11-7 0 3.5 3.5 0 017 0zm-3.52 4.79a4.83 4.83 0 00-4.83 4.83V21a.75.75 0 001.5 0v-2.88a3.33 3.33 0 116.66 0V21a.75.75 0 001.5 0v-2.88a4.83 4.83 0 00-4.83-4.83zm6.21 1.83a4.83 4.83 0 119.66 0V18a.75.75 0 01-1.5 0v-2.88a3.33 3.33 0 10-6.66 0V18a.75.75 0 01-1.5 0v-2.88z" clip-rule="evenodd"></path></svg>