<svg xmlns="http://www.w3.org/2000/svg" viewBox="0 0 24 24" fill="currentColor" aria-hidden="true" class="bit-tooltip  "><path fill-rule="evenodd" d="M12.9 4a.9.9 0 11-1.8 0 .9.9 0 011.8 0zm-.1 2.37a2.501 2.501 0 10-1.6 0V7H5.5a2 2 0 00-2 2v10a2 2 0 002 2h13a2 2 0 002-2V9a2 2 0 00-2-2h-5.7v-.63zM18.9 9v10a.4.4 0 01-.4.4h-13a.4.4 0 01-.4-.4V9c0-.22.18-.4.4-.4h13c.22 0 .4.18.4.4zM1.8 11.973a.8.8 0 01.8.8v2.5a.8.8 0 11-1.6 0v-2.5a.8.8 0 01.8-.8zm21.2.8a.8.8 0 00-1.6 0v2.5a.8.8 0 101.6 0v-2.5zM9.75 13a1.5 1.5 0 11-3 0 1.5 1.5 0 013 0zm6 1.5a1.5 1.5 0 100-3 1.5 1.5 0 000 3z" clip-rule="evenodd"></path></svg>