<svg xmlns="http://www.w3.org/2000/svg" viewBox="0 0 24 24" fill="currentColor" aria-hidden="true" class="bit-tooltip  "><path fill-rule="evenodd" d="M9.092 1.958a1.7 1.7 0 00-1.92 1.447l-.26 1.857-4.448.625a1.7 1.7 0 00-1.447 1.92l1.652 11.754a1.7 1.7 0 001.946 1.443l3.174-.497 10.912 1.534a1.7 1.7 0 001.92-1.447l2.108-15.003a1.7 1.7 0 00-1.447-1.92L9.092 1.958zM5.218 19.387a1.692 1.692 0 01-.154-.98l1.63-11.6-4.022.566a.2.2 0 00-.17.226l1.652 11.753a.2.2 0 00.229.17l.835-.135zm3.44-15.773a.2.2 0 01.225-.17l12.19 1.713a.2.2 0 01.17.226l-2.108 15.002a.2.2 0 01-.226.17L6.72 18.842a.2.2 0 01-.17-.226L8.658 3.614zm1.985 4.996a.75.75 0 01.847-.639l6.004.844a.75.75 0 11-.208 1.486l-6.005-.844a.75.75 0 01-.638-.847zm.247 3.78a.75.75 0 10-.21 1.486l3.603.506a.75.75 0 00.21-1.486l-3.603-.506z" clip-rule="evenodd"></path></svg>