<svg width="40" height="40" viewBox="0 0 40 40" fill="none" xmlns="http://www.w3.org/2000/svg">
<g clip-path="url(#clip0_402_8478)">
<g opacity="0.4" filter="url(#filter0_i_402_8478)">
<path d="M6.08308 31.4104L1.90976 11.7765C1.68699 10.7285 2.35599 9.69832 3.40401 9.47556L12.4832 7.54571C13.5312 7.32295 14.5614 7.99195 14.7842 9.03997L19.3608 30.5715L8.38403 32.9047C7.33601 33.1275 6.30584 32.4585 6.08308 31.4104Z" fill="#06C8E2"/>
</g>
<path d="M12.487 4.30777C12.7097 3.25975 13.7399 2.59075 14.7879 2.81351L36.2883 7.38355C37.3363 7.60632 38.0053 8.63649 37.7825 9.68451L32.3455 35.2638C32.1227 36.3121 31.1036 36.9836 30.0554 36.7604C25.3926 35.7676 13.3606 33.2059 8.61881 32.1965C7.57086 31.9735 6.91002 30.9457 7.12772 29.8967C8.02432 25.5761 10.0931 15.5725 10.1121 15.4808C10.1128 15.4773 10.1126 15.4784 10.1133 15.4749L12.487 4.30777Z" fill="url(#paint0_linear_402_8478)"/>
<path d="M16.7685 13.7517L29.0327 16.4223" stroke="white" stroke-width="3" stroke-linecap="round"/>
<path d="M15.7564 21.7538L22.9006 23.3252" stroke="white" stroke-width="3" stroke-linecap="round"/>
<mask id="mask0_402_8478" style="mask-type:alpha" maskUnits="userSpaceOnUse" x="7" y="2" width="31" height="35">
<path d="M12.487 4.30777C12.7097 3.25975 13.7399 2.59075 14.7879 2.81351L36.2883 7.38355C37.3363 7.60632 38.0053 8.63649 37.7825 9.68451L32.3455 35.2638C32.1227 36.3121 31.1036 36.9836 30.0554 36.7604C25.3926 35.7676 13.3606 33.2059 8.61881 32.1965C7.57086 31.9735 6.91002 30.9457 7.12772 29.8967C8.02432 25.5761 10.0931 15.5725 10.1121 15.4808C10.1128 15.4773 10.1126 15.4784 10.1133 15.4749L12.487 4.30777Z" fill="url(#paint1_linear_402_8478)"/>
</mask>
<g mask="url(#mask0_402_8478)">
<rect opacity="0.1" width="43.9107" height="26.1187" transform="matrix(0.707123 -0.70709 0.707123 0.70709 7.57388 34.7279)" fill="url(#paint2_linear_402_8478)"/>
</g>
</g>
<defs>
<filter id="filter0_i_402_8478" x="1.86697" y="7.28457" width="17.7122" height="25.6629" filterUnits="userSpaceOnUse" color-interpolation-filters="sRGB">
<feFlood flood-opacity="0" result="BackgroundImageFix"/>
<feBlend mode="normal" in="SourceGraphic" in2="BackgroundImageFix" result="shape"/>
<feColorMatrix in="SourceAlpha" type="matrix" values="0 0 0 0 0 0 0 0 0 0 0 0 0 0 0 0 0 0 127 0" result="hardAlpha"/>
<feOffset dx="0.218357" dy="-0.218357"/>
<feGaussianBlur stdDeviation="0.272946"/>
<feComposite in2="hardAlpha" operator="arithmetic" k2="-1" k3="1"/>
<feColorMatrix type="matrix" values="0 0 0 0 1 0 0 0 0 1 0 0 0 0 1 0 0 0 0.6 0"/>
<feBlend mode="normal" in2="shape" result="effect1_innerShadow_402_8478"/>
</filter>
<linearGradient id="paint0_linear_402_8478" x1="10.0745" y1="18.9231" x2="32.7721" y2="21.8144" gradientUnits="userSpaceOnUse">
<stop stop-color="#03C3DD"/>
<stop offset="1" stop-color="#0AD3EE"/>
</linearGradient>
<linearGradient id="paint1_linear_402_8478" x1="10.0745" y1="18.9231" x2="32.7721" y2="21.8144" gradientUnits="userSpaceOnUse">
<stop stop-color="#03C3DD"/>
<stop offset="1" stop-color="#0AD3EE"/>
</linearGradient>
<linearGradient id="paint2_linear_402_8478" x1="29.5978" y1="9.94804" x2="16.1587" y2="-8.83264" gradientUnits="userSpaceOnUse">
<stop stop-color="#03A4C0"/>
<stop offset="1" stop-color="#004450"/>
</linearGradient>
<clipPath id="clip0_402_8478">
<rect width="40" height="40" fill="white"/>
</clipPath>
</defs>
</svg>
