<svg width="40" height="40" viewBox="0 0 40 40" fill="none" xmlns="http://www.w3.org/2000/svg">
<path d="M5.36792 34.5146V20.9343C5.36792 19.8654 6.23443 18.9989 7.30331 18.9989H10.5401V34.5146H5.36792Z" fill="#CABEED" fill-opacity="0.4"/>
<path d="M9.50587 6.41794C9.50587 5.34905 10.3724 4.48254 11.4413 4.48254H33.4312C34.5001 4.48254 35.3666 5.34905 35.3666 6.41794V29.3419C35.3666 32.1984 33.0525 34.514 30.1961 34.514C22.433 34.514 8.54986 34.514 7.43701 34.514C9.50587 34.514 9.50587 31.4108 9.50587 31.4108V26.2389V6.41794Z" fill="url(#paint0_linear_402_8408)"/>
<mask id="mask0_402_8408" style="mask-type:alpha" maskUnits="userSpaceOnUse" x="7" y="4" width="29" height="31">
<path d="M9.50721 5.51658C9.50721 4.9453 9.97033 4.48218 10.5416 4.48218H34.3335C34.9048 4.48218 35.3679 4.9453 35.3679 5.51658V29.3416C35.3679 32.198 33.0539 34.5136 30.1975 34.5136C22.4344 34.5136 8.5512 34.5136 7.43835 34.5136C9.50721 34.5136 9.50721 31.4105 9.50721 31.4105V26.2386V5.51658Z" fill="url(#paint1_linear_402_8408)"/>
</mask>
<g mask="url(#mask0_402_8408)">
<rect opacity="0.28" width="43.9107" height="26.1187" transform="matrix(0.707123 -0.70709 0.707123 0.70709 7.57385 35.7279)" fill="url(#paint2_linear_402_8408)"/>
</g>
<path d="M17 20.9999L21.1887 16.3749L24.9245 20.4999L29 15.9999" stroke="white" stroke-width="3" stroke-linecap="round"/>
<defs>
<linearGradient id="paint0_linear_402_8408" x1="8.41742" y1="18.5055" x2="32.8082" y2="18.854" gradientUnits="userSpaceOnUse">
<stop stop-color="#C5ACE6"/>
<stop offset="1" stop-color="#BF9AEF"/>
</linearGradient>
<linearGradient id="paint1_linear_402_8408" x1="8.41877" y1="18.5052" x2="32.8095" y2="18.8536" gradientUnits="userSpaceOnUse">
<stop stop-color="#C5ACE6"/>
<stop offset="1" stop-color="#C5ACE6"/>
</linearGradient>
<linearGradient id="paint2_linear_402_8408" x1="15.2951" y1="9.68389" x2="11.1289" y2="-2.13422" gradientUnits="userSpaceOnUse">
<stop stop-color="#B08FDC"/>
<stop offset="1" stop-color="#9974C9"/>
</linearGradient>
</defs>
</svg>
