<svg width="246" height="53" viewBox="0 0 246 53" fill="none" xmlns="http://www.w3.org/2000/svg">
<path d="M36.6466 18.3066C37.1257 20.2107 36.9026 22.2236 36.0183 23.9766C35.1339 25.7296 33.6476 27.1053 31.8316 27.8516C30.0155 28.5979 27.9913 28.6649 26.1299 28.0403C24.2685 27.4156 22.6945 26.1412 21.6963 24.4505C23.4476 23.5594 24.8449 22.1005 25.6598 20.3124C26.4746 18.5243 26.6588 16.5126 26.1822 14.6062C26.0253 13.9789 25.7979 13.3714 25.5041 12.7953C25.9063 12.6257 26.321 12.4874 26.7445 12.3819C27.7851 12.1179 28.8675 12.0618 29.9298 12.2169C30.9922 12.3719 32.0134 12.735 32.9352 13.2854C33.8569 13.8358 34.6611 14.5626 35.3015 15.4242C35.9419 16.2858 36.406 17.2653 36.6673 18.3066H36.6466Z" fill="white"/>
<path d="M32.8511 40.4758C31.1949 41.5327 29.2131 41.9569 27.2693 41.6707C25.3255 41.3845 23.5501 40.407 22.2687 38.9176C20.9873 37.4282 20.2859 35.5268 20.2932 33.562C20.3004 31.5973 21.0158 29.7011 22.3082 28.2212C23.1162 29.0233 24.0744 29.6583 25.1281 30.0898C26.1817 30.5213 27.3101 30.7409 28.4487 30.7359C29.5873 30.7309 30.7137 30.5015 31.7635 30.0607C32.8134 29.62 33.766 28.9766 34.567 28.1674C35.3536 29.0499 35.939 30.0929 36.2824 31.2241C36.6259 32.3553 36.7193 33.5476 36.556 34.7185C36.3928 35.8894 35.9769 37.0107 35.3372 38.0049C34.6974 38.999 33.8492 39.8422 32.8511 40.4758Z" fill="white"/>
<path d="M10.6861 43.7752C9.17956 42.5152 8.17763 40.7545 7.86393 38.8157C7.55024 36.877 7.94579 34.8902 8.97808 33.2194C10.0104 31.5486 11.6103 30.3059 13.4845 29.719C15.3586 29.1321 17.3816 29.2403 19.1825 30.0238C18.2886 31.7734 18.0145 33.7744 18.405 35.6999C18.7955 37.6255 19.8275 39.3616 21.3324 40.6247C21.8276 41.0384 22.3669 41.3962 22.9407 41.6914C22.7191 42.0641 22.4675 42.4181 22.1883 42.7498C21.5006 43.5728 20.6576 44.2523 19.7072 44.7493C18.7569 45.2463 17.7179 45.5511 16.6497 45.6463C15.5814 45.7416 14.5049 45.6253 13.4816 45.3043C12.4584 44.9832 11.5084 44.4636 10.6861 43.7752Z" fill="white"/>
<path d="M0.581324 23.8303C1.31144 22.0136 2.67004 20.5197 4.4095 19.6208C6.14897 18.722 8.15349 18.4781 10.0577 18.9336C11.962 19.3892 13.6391 20.5137 14.7836 22.1024C15.928 23.6911 16.4635 25.6381 16.2924 27.5886C14.349 27.284 12.3597 27.6504 10.6523 28.6273C8.94486 29.6043 7.62104 31.1336 6.89885 32.9634C6.65851 33.5635 6.48788 34.1891 6.39031 34.8281C5.23798 34.569 4.15538 34.0636 3.2168 33.3466C2.27823 32.6296 1.50591 31.718 0.952872 30.6744C0.399835 29.6308 0.0791748 28.4798 0.0128991 27.3006C-0.0533766 26.1213 0.136305 24.9417 0.568921 23.8427L0.581324 23.8303Z" fill="white"/>
<path d="M16.4868 7.94967C18.4632 8.03778 20.3405 8.84045 21.7696 10.2085C23.1988 11.5766 24.0827 13.417 24.257 15.3877C24.4313 17.3584 23.8843 19.3254 22.7174 20.9231C21.5506 22.5208 19.8435 23.6405 17.9132 24.0742C17.5832 22.1368 16.6056 20.3687 15.1404 19.0589C13.6752 17.7491 11.8089 16.9752 9.84676 16.8637C9.20116 16.8305 8.55386 16.8665 7.91594 16.9712C7.87306 16.5412 7.86338 16.1085 7.887 15.6771C7.94513 14.6062 8.21374 13.5573 8.67748 12.5903C9.14123 11.6233 9.79101 10.7571 10.5897 10.0414C11.3884 9.32568 12.3203 8.77437 13.3321 8.419C14.344 8.06363 15.416 7.91118 16.4868 7.97034V7.94967Z" fill="white"/>
<path d="M84.9873 18.2942L81.9691 20.1671C79.3478 16.7162 75.7714 14.9893 71.24 14.9866C67.6182 14.9866 64.6097 16.1443 62.2144 18.4596C61.0591 19.5339 60.1417 20.8384 59.5215 22.289C58.9012 23.7396 58.5918 25.3041 58.6132 26.8816C58.6056 29.0183 59.1771 31.1172 60.267 32.9552C61.3387 34.8268 62.9145 36.3596 64.815 37.3791C66.7981 38.4417 69.0194 38.981 71.269 38.9461C75.635 38.9461 79.2017 37.2192 81.9691 33.7655L84.9873 35.7542C83.5579 37.8869 81.5855 39.5996 79.2734 40.7156C76.7196 41.9201 73.9226 42.52 71.0995 42.4687C66.4137 42.4687 62.5204 40.9858 59.4195 38.0199C57.9293 36.6422 56.7463 34.9657 55.9476 33.0999C55.149 31.2341 54.7528 29.2209 54.7847 27.1917C54.77 24.3861 55.522 21.6298 56.9594 19.2203C58.3755 16.7939 60.4363 14.8075 62.9131 13.4816C65.5225 12.0868 68.4427 11.3756 71.4013 11.4144C73.3343 11.4085 75.2561 11.71 77.0945 12.3074C78.7606 12.8224 80.3296 13.6104 81.7375 14.6393C83.0505 15.6317 84.156 16.872 84.9914 18.2901L84.9873 18.2942Z" fill="white"/>
<path d="M121.764 12.1462V41.7327H117.972V36.6431C116.52 38.4722 114.685 39.9623 112.597 41.0092C110.571 41.9832 108.347 42.4783 106.098 42.4562C104.094 42.4821 102.105 42.0912 100.26 41.3083C98.4145 40.5254 96.7518 39.3676 95.3773 37.9083C93.933 36.4572 92.7959 34.73 92.0337 32.8298C91.2715 30.9297 90.8998 28.8954 90.9409 26.8485C90.9096 24.8213 91.2911 22.8089 92.0624 20.9338C92.8336 19.0587 93.9783 17.3602 95.4269 15.9417C96.8136 14.4812 98.4873 13.3233 100.343 12.5407C102.199 11.758 104.196 11.3675 106.21 11.3937C108.496 11.3621 110.755 11.8886 112.792 12.9276C114.859 14.0407 116.632 15.6293 117.964 17.5624V12.1462H121.764ZM106.511 15.0982C104.446 15.0835 102.415 15.626 100.633 16.6687C98.8499 17.7114 97.3814 19.2157 96.382 21.023C95.339 22.8353 94.79 24.8897 94.79 26.9808C94.79 29.0718 95.339 31.1263 96.382 32.9386C97.3893 34.7735 98.8753 36.301 100.682 37.3584C102.432 38.4019 104.433 38.9506 106.47 38.9461C108.541 38.9479 110.577 38.4077 112.374 37.3791C114.184 36.398 115.68 34.9262 116.691 33.1329C117.71 31.2866 118.229 29.2055 118.196 27.0966C118.196 23.687 117.07 20.8355 114.818 18.5423C113.748 17.4237 112.457 16.5398 111.027 15.9469C109.597 15.354 108.059 15.065 106.511 15.0982Z" fill="white"/>
<path d="M134.196 12.1462V17.5872C135.541 15.6577 137.32 14.0703 139.389 12.9524C141.417 11.9139 143.668 11.3873 145.946 11.4185C147.961 11.3929 149.96 11.7837 151.817 12.5662C153.673 13.3488 155.349 14.5064 156.737 15.9665C158.185 17.3856 159.33 19.0842 160.101 20.9592C160.872 22.8341 161.254 24.8462 161.223 26.8733C161.263 28.9212 160.89 30.9561 160.126 32.8564C159.361 34.7567 158.222 36.4833 156.775 37.9331C154.585 40.1794 151.747 41.6825 148.658 42.2306C145.57 42.7787 142.387 42.3443 139.559 40.9885C137.475 39.9269 135.643 38.4327 134.184 36.6059V52.5651H130.397V12.1462H134.196ZM145.669 15.0982C144.121 15.0628 142.582 15.35 141.151 15.9415C139.719 16.533 138.427 17.4159 137.355 18.534C135.097 20.8273 133.972 23.6787 133.977 27.0883C133.944 29.1967 134.461 31.2772 135.478 33.1247C136.489 34.9184 137.983 36.3924 139.79 37.3791C141.596 38.4058 143.638 38.9458 145.715 38.9461C147.746 38.9493 149.739 38.4006 151.483 37.3584C153.285 36.299 154.768 34.7718 155.774 32.9386C156.817 31.1263 157.366 29.0718 157.366 26.9808C157.366 24.8897 156.817 22.8353 155.774 21.023C154.775 19.2169 153.308 17.7135 151.527 16.6708C149.746 15.6282 147.717 15.085 145.653 15.0982H145.669Z" fill="white"/>
<path d="M167.81 12.1462H171.597V41.7327H167.81V12.1462Z" fill="white"/>
<path d="M169.468 0.0114214C169.879 -0.0246836 170.293 0.0250341 170.683 0.157419C171.074 0.289803 171.433 0.501964 171.737 0.78044C172.05 1.04992 172.305 1.37825 172.491 1.74668C172.676 2.11511 172.786 2.51641 172.816 2.92764C172.846 3.33887 172.795 3.75197 172.665 4.14333C172.535 4.5347 172.33 4.89665 172.06 5.2085C171.798 5.52655 171.472 5.78694 171.104 5.97335C170.736 6.15975 170.334 6.26815 169.922 6.29174C169.514 6.32732 169.103 6.2777 168.715 6.14603C168.328 6.01436 167.971 5.80351 167.669 5.52685C167.295 5.21069 167.001 4.8095 166.813 4.35678C167.388 4.06531 167.864 3.61115 168.182 3.05092C168.501 2.49069 168.647 1.84917 168.604 1.20629C168.58 0.889132 168.511 0.577094 168.397 0.280162C168.735 0.127584 169.098 0.0365786 169.468 0.0114214Z" fill="white"/>
<path d="M208.282 18.2942L205.26 20.1671C202.644 16.7162 199.069 14.9893 194.535 14.9866C190.913 14.9866 187.905 16.1443 185.509 18.4596C184.357 19.5349 183.442 20.84 182.824 22.2906C182.207 23.7412 181.901 25.3052 181.925 26.8816C181.919 29.0181 182.49 31.1166 183.579 32.9552C184.652 34.8255 186.227 36.358 188.127 37.3791C190.11 38.4417 192.331 38.981 194.581 38.9461C198.947 38.9461 202.512 37.2192 205.277 33.7655L208.299 35.7542C206.87 37.8869 204.897 39.5996 202.585 40.7156C200.031 41.9201 197.234 42.52 194.411 42.4687C189.725 42.4687 185.832 40.9858 182.731 38.0199C181.241 36.6422 180.058 34.9657 179.259 33.0999C178.461 31.2341 178.064 29.2209 178.096 27.1917C178.083 24.3907 178.833 21.639 180.267 19.2327C181.683 16.8063 183.744 14.8199 186.221 13.494C188.83 12.0992 191.75 11.388 194.709 11.4268C196.642 11.4213 198.563 11.7227 200.402 12.3198C202.068 12.8357 203.637 13.6236 205.045 14.6517C206.358 15.6441 207.464 16.8844 208.299 18.3025L208.282 18.2942Z" fill="white"/>
<path d="M229.604 11.4185C234.163 11.4185 237.946 13.0723 240.953 16.3799C243.629 19.3293 245.092 23.1806 245.049 27.1626C245.006 31.1447 243.461 34.9636 240.722 37.8546C237.828 40.9348 234.107 42.4769 229.604 42.4769C225.102 42.4769 221.335 40.9348 218.441 37.8546C215.698 34.9678 214.148 31.1498 214.105 27.1677C214.061 23.1856 215.526 19.3345 218.205 16.3882C221.207 13.0806 225.002 11.4268 229.592 11.4268L229.604 11.4185ZM229.604 15.1396C228.071 15.1245 226.552 15.43 225.145 16.0367C223.737 16.6433 222.472 17.5376 221.43 18.6622C220.324 19.7715 219.452 21.0921 218.867 22.5454C218.281 23.9987 217.995 25.5549 218.023 27.1214C218.015 29.2094 218.549 31.2639 219.574 33.0833C220.557 34.8651 222.013 36.3404 223.783 37.346C225.558 38.3329 227.556 38.8508 229.587 38.8508C231.619 38.8508 233.617 38.3329 235.392 37.346C237.16 36.3401 238.616 34.8648 239.597 33.0833C240.622 31.2639 241.156 29.2094 241.148 27.1214C241.175 25.5532 240.886 23.9956 240.297 22.542C239.708 21.0884 238.831 19.7688 237.72 18.6622C236.682 17.5466 235.422 16.6598 234.022 16.0583C232.622 15.4567 231.111 15.1537 229.587 15.1685L229.604 15.1396Z" fill="white"/>
</svg>
