<svg width="21" height="21" viewBox="0 0 21 21" fill="none" xmlns="http://www.w3.org/2000/svg">
<g clip-path="url(#clip0_31_389)">
<path d="M20.1513 13.0025C18.8152 18.3625 13.3846 21.6208 8.03227 20.2846C2.67212 18.9485 -0.586164 13.5182 0.750008 8.16594C2.0861 2.80594 7.50876 -0.452344 12.8689 0.883828C18.2213 2.21211 21.4874 7.64242 20.1513 13.0025Z" fill="url(#paint0_linear_31_389)"/>
<path d="M14.5469 10.0859C14.7422 8.75781 13.7344 8.03906 12.3437 7.5625L12.7969 5.75781L11.7031 5.48438L11.2656 7.24219C10.9766 7.17188 10.6797 7.10156 10.3828 7.03906L10.8203 5.27344L9.72656 5L9.28125 6.79687C9.03906 6.74219 8.80469 6.6875 8.57812 6.63281V6.625L7.0625 6.25L6.77344 7.42187C6.77344 7.42187 7.58594 7.60937 7.57031 7.61719C8.01562 7.72656 8.09375 8.02344 8.07812 8.25781L7.5625 10.3125C7.59375 10.3203 7.63281 10.3281 7.67969 10.3516C7.64062 10.3438 7.60156 10.3359 7.5625 10.3203L6.84375 13.1953C6.78906 13.3281 6.64844 13.5312 6.34375 13.4531C6.35156 13.4688 5.54688 13.2578 5.54688 13.2578L5 14.5156L6.42969 14.875C6.69531 14.9453 6.95312 15.0078 7.21094 15.0781L6.75781 16.8984L7.85156 17.1719L8.30469 15.3672C8.60156 15.4453 8.89844 15.5234 9.17969 15.5938L8.73437 17.3906L9.82812 17.6641L10.2812 15.8438C12.1562 16.1953 13.5625 16.0547 14.1484 14.3594C14.625 13 14.125 12.2109 13.1406 11.6953C13.8672 11.5312 14.4062 11.0547 14.5469 10.0859ZM12.0391 13.6016C11.7031 14.9609 9.40625 14.2266 8.66406 14.0391L9.26562 11.625C10.0078 11.8125 12.3984 12.1797 12.0391 13.6016ZM12.3828 10.0625C12.0703 11.3047 10.1641 10.6719 9.54688 10.5156L10.0938 8.32813C10.7109 8.48438 12.7031 8.77344 12.3828 10.0625Z" fill="white"/>
</g>
<defs>
<linearGradient id="paint0_linear_31_389" x1="999.91" y1="0.104229" x2="999.91" y2="2000.38" gradientUnits="userSpaceOnUse">
<stop stop-color="#F9AA4B"/>
<stop offset="1" stop-color="#F7931A"/>
</linearGradient>
<clipPath id="clip0_31_389">
<rect width="20" height="20" fill="white" transform="translate(0.450409 0.584229)"/>
</clipPath>
</defs>
</svg>
