<svg width="91" height="33" viewBox="0 0 91 33" fill="none" xmlns="http://www.w3.org/2000/svg">
<path d="M0.571838 32.5V5C2.6746 5 4.47697 4.5 6.57973 4.5C8.6825 4.5 10.4849 7 12.5876 7C14.6904 7 16.4928 8 18.5955 8C20.6983 8 22.5007 1 24.6034 1C26.7062 1 28.5086 15 30.6113 15C32.7141 15 34.5164 10.5 36.6192 10.5C38.722 10.5 40.5243 12.5 42.6271 12.5C44.7299 12.5 46.5322 14.5 48.635 14.5C50.7378 14.5 52.5401 12.5 54.6429 12.5C56.7457 12.5 58.548 5.5 60.6508 5.5C62.7536 5.5 64.5559 8 66.6587 8C68.7615 8 70.5638 1 72.6666 1C74.7694 1 76.5717 15 78.6745 15C80.7772 15 82.5796 10.5 84.6824 10.5C86.7851 10.5 88.5875 31 90.6903 31C90.6903 31 90.6903 31 90.6903 32.5" fill="url(#paint0_linear_35_1054)"/>
<path d="M0.571838 5C2.6746 5 4.47697 4.5 6.57973 4.5C8.6825 4.5 10.4849 7 12.5876 7C14.6904 7 16.4928 8 18.5955 8C20.6983 8 22.5007 1 24.6034 1C26.7062 1 28.5086 15 30.6113 15C32.7141 15 34.5165 10.5 36.6192 10.5C38.722 10.5 40.5243 12.5 42.6271 12.5C44.7299 12.5 46.5322 14.5 48.635 14.5C50.7378 14.5 52.5401 12.5 54.6429 12.5C56.7457 12.5 58.548 5.5 60.6508 5.5C62.7536 5.5 64.5559 8 66.6587 8C68.7615 8 70.5638 1 72.6666 1C74.7694 1 76.5717 15 78.6745 15C80.7772 15 82.5796 10.5 84.6824 10.5C86.7851 10.5 88.5875 31 90.6903 31" stroke="#D33535" stroke-width="0.3"/>
<defs>
<linearGradient id="paint0_linear_35_1054" x1="0.571838" y1="1" x2="0.571838" y2="32.5" gradientUnits="userSpaceOnUse">
<stop stop-color="#D33535" stop-opacity="0.4225"/>
<stop offset="1" stop-color="#E99A9A" stop-opacity="0.25"/>
</linearGradient>
</defs>
</svg>
