<svg width="91" height="32" viewBox="0 0 91 32" fill="none" xmlns="http://www.w3.org/2000/svg">
<path d="M0.76947 32V23.2921C3.02243 23.2921 4.95354 9.01124 7.2065 9.01124C9.45946 9.01124 11.3906 17.7191 13.6435 17.7191C15.8965 17.7191 17.8276 1 20.0806 1C22.3335 1 24.2646 10.0562 26.5176 10.0562C28.7706 10.0562 30.7017 23.2921 32.9546 23.2921C35.2076 23.2921 37.1387 16.6742 39.3917 16.6742C41.6446 16.6742 43.5757 25.0337 45.8287 25.0337C48.0816 25.0337 50.0128 19.4607 52.2657 19.4607C54.5187 19.4607 56.4498 18.0674 58.7028 18.0674C60.9557 18.0674 62.8868 13.191 65.1398 13.191C67.3927 13.191 69.3239 1 71.5768 1C73.8298 1 75.7609 10.0562 78.0138 10.0562C80.2668 10.0562 82.1979 23.2921 84.4509 23.2921C86.7038 23.2921 88.6349 4.13483 90.8879 4.13483C90.8879 4.13483 90.8879 4.13483 90.8879 32" fill="url(#paint0_linear_35_848)"/>
<path d="M0.76947 23.2921C3.02243 23.2921 4.95354 9.01124 7.2065 9.01124C9.45946 9.01124 11.3906 17.7191 13.6435 17.7191C15.8965 17.7191 17.8276 1 20.0806 1C22.3335 1 24.2646 10.0562 26.5176 10.0562C28.7706 10.0562 30.7017 23.2921 32.9546 23.2921C35.2076 23.2921 37.1387 16.6742 39.3917 16.6742C41.6446 16.6742 43.5757 25.0337 45.8287 25.0337C48.0817 25.0337 50.0128 19.4607 52.2657 19.4607C54.5187 19.4607 56.4498 18.0674 58.7028 18.0674C60.9557 18.0674 62.8868 13.191 65.1398 13.191C67.3927 13.191 69.3239 1 71.5768 1C73.8298 1 75.7609 10.0562 78.0138 10.0562C80.2668 10.0562 82.1979 23.2921 84.4509 23.2921C86.7038 23.2921 88.6349 4.13483 90.8879 4.13483" stroke="#58BD7D" stroke-width="0.3"/>
<defs>
<linearGradient id="paint0_linear_35_848" x1="0.76947" y1="1" x2="0.76947" y2="32" gradientUnits="userSpaceOnUse">
<stop stop-color="#58BD7D" stop-opacity="0.4225"/>
<stop offset="1" stop-color="#ACDEBE" stop-opacity="0.25"/>
</linearGradient>
</defs>
</svg>
